<svg xmlns="http://www.w3.org/2000/svg" width="26" height="21"><path fill="#313132" fill-rule="evenodd" stroke="#FFF" d="M1.063 10.309a1.828 1.828 0 00-.025.676 1.788 1.788 0 00.105.4c.008.024.014.048.024.071.008.018.018.034.027.05a1.788 1.788 0 00.135.244 2.156 2.156 0 00.17.22c.013.015.024.031.037.045l6.989 7.258a1.886 1.886 0 002.729-2.603L7.306 12.6h15.808a1.886 1.886 0 000-3.772H7.305l4.04-4.16a1.885 1.885 0 10-2.729-2.602l-7.08 7.347c-.013.013-.022.028-.034.041a1.87 1.87 0 00-.244.341 2.128 2.128 0 00-.064.124c-.008.018-.02.034-.027.052-.01.024-.016.048-.025.072a1.942 1.942 0 00-.08.266"/></svg>