<svg xmlns="http://www.w3.org/2000/svg" width="23" height="24"><g fill="#FFF" fill-rule="evenodd"><path d="M3.883 6.573c.153-2.13 1.858-3.808 3.938-3.808s3.785 1.679 3.938 3.808h1.333c.846 0 1.539.702 1.564 1.584l.378 13.43c.025.902-.654 1.653-1.517 1.68H2.105c-.864 0-1.564-.73-1.564-1.631v-.048l.38-13.43c.024-.883.717-1.585 1.563-1.585h1.4zm1.713 0h4.45c-.146-1.146-1.087-2.03-2.225-2.03-1.138 0-2.078.884-2.225 2.03zm1.266 13.424a.9.9 0 00.904.919.91.91 0 00.914-.926v-.006c0-.51-.384-.924-.907-.924-.524 0-.91.421-.91.93v.007zm.905-9.962c-1.8 0-3.263 1.529-3.263 3.406 0 .715.213 1.402.615 1.986l.087.125 1.7 2.503s.207.353.659.353h.405c.453 0 .659-.353.659-.353l1.7-2.503.086-.125a3.48 3.48 0 00.616-1.986c0-1.877-1.464-3.406-3.264-3.406zm1.344 4.411l-.091.133-1.253 1.844-1.25-1.841-.092-.133a1.763 1.763 0 01-.314-1.008c0-.954.743-1.728 1.656-1.728.913 0 1.657.774 1.657 1.728 0 .361-.109.709-.313 1.005z"/><path d="M16.073 15.072l1.555-2.29.086-.125c.403-.584.616-1.27.616-1.985 0-1.632-1.106-3-2.577-3.33-.353-1.187-1.413-2.044-2.66-2.044h-.328a5.426 5.426 0 00-1.428-2.368c.488-1.698 1.997-2.934 3.783-2.934 2.08 0 3.784 1.678 3.938 3.808h1.333c.846 0 1.538.702 1.563 1.584l.379 13.43c.025.901-.654 1.653-1.518 1.68h-4.589l-.153-5.426zm-.079-2.785l-.087-3.104c.488.3.816.855.816 1.489 0 .36-.109.708-.314 1.005l-.09.132-.325.478zm-3.1-8.483h4.45c-.146-1.146-1.086-2.03-2.224-2.03-1.138 0-2.079.884-2.225 2.03z"/></g></svg>