<svg xmlns="http://www.w3.org/2000/svg" width="32" height="32"><path fill="#4A4A4A" fill-rule="evenodd" d="M18.348 3c3.914 0 7.067 3.489 7.429 7.89C27.57 10.966 29 12.46 29 14.292v4.845c0 1.88-1.508 3.404-3.368 3.404-.04 0-.081 0-.122-.002-.479 3.183-2.412 5.183-5.42 5.168A2.492 2.492 0 0117.91 29h-4.14c-1.379 0-2.496-1.13-2.496-2.523 0-1.394 1.117-2.523 2.496-2.523h4.14c1.124 0 2.075.75 2.387 1.783 1.94-.085 3.103-1.448 3.34-3.856a3.415 3.415 0 01-1.373-2.744v-4.845a3.41 3.41 0 011.597-2.897c-.146-3.61-2.595-6.43-5.513-6.43h-5.016c-2.871 0-5.289 2.73-5.504 6.257a3.407 3.407 0 011.908 3.07v4.845c0 1.88-1.508 3.404-3.368 3.404-1.86 0-3.368-1.524-3.368-3.404v-4.845c0-1.72 1.262-3.143 2.901-3.373C6.251 6.504 9.41 3 13.332 3h5.016zm-.438 22.918h-4.14a.556.556 0 00-.553.559c0 .308.248.558.553.558h4.14c.306 0 .553-.25.553-.558a.555.555 0 00-.553-.559zM6.368 12.851c-.787 0-1.424.645-1.424 1.44v4.846c0 .795.637 1.44 1.424 1.44.787 0 1.425-.645 1.425-1.44v-4.845c0-.796-.638-1.44-1.425-1.44zm19.264 0c-.787 0-1.425.645-1.425 1.44v4.846c0 .795.638 1.44 1.425 1.44s1.424-.645 1.424-1.44v-4.845c0-.796-.637-1.44-1.424-1.44z"/></svg>