<svg xmlns="http://www.w3.org/2000/svg" width="25" height="24"><g fill="none" fill-rule="evenodd"><path fill="#F66" d="M12.588 23.842C6.014 23.842.667 18.494.667 11.92.667 5.347 6.014 0 12.587 0c6.574 0 11.921 5.347 11.921 11.92 0 6.573-5.347 11.92-11.92 11.92"/><path fill="#FEFEFE" d="M13.936 11.975l2.996-2.988a1.007 1.007 0 00-.684-1.717.997.997 0 00-.713.29l-3.013 3.005L9.508 7.56a.997.997 0 00-.712-.29 1.004 1.004 0 00-.684 1.717l2.996 2.988-2.889 2.88a1.007 1.007 0 000 1.424 1 1 0 00.685.292.997.997 0 00.712-.289l2.906-2.897 2.905 2.897a1 1 0 00.713.29 1 1 0 00.685-.293 1.007 1.007 0 000-1.424l-2.889-2.88z"/></g></svg>