<svg xmlns="http://www.w3.org/2000/svg" width="18" height="18"><g fill="none" fill-rule="evenodd" stroke="#616161" stroke-linecap="round" stroke-linejoin="round"><path d="M.623 7.257v7.752c2.174.613 4.512.541 7.012-.215 2.501-.757 4.932-.832 7.294-.225V6.843c-2.415-.719-4.821-.65-7.217.209-2.396.857-4.76.926-7.09.205z"/><path d="M16.76 12.752V5.605c-1.615-1.02-4.214-1.616-7.936-.72-3.723.897-3.545 1.65-6.537.72m5.831 6.725c.644 0 1.166-.715 1.166-1.598 0-.883-.522-1.599-1.166-1.599-.644 0-1.166.716-1.166 1.6 0 .882.522 1.598 1.166 1.598z"/></g></svg>