<svg xmlns="http://www.w3.org/2000/svg" width="24" height="24"><g fill="none" fill-rule="evenodd"><path d="M0 0h24v24H0z"/><path fill="#FFC244" d="M12 1c6.075 0 11 4.925 11 11 0 6.076-4.924 11-11 11S1 18.076 1 12C1 5.925 5.925 1 12 1zm.009 15.667c-2.21 0-4.605 1.238-5.417 2.869l-.017.028c1.527 1.098 3.4 1.744 5.425 1.744s3.898-.646 5.425-1.744c-.007-.009-.012-.019-.017-.028-.812-1.633-3.194-2.87-5.399-2.87zM12 2.692a9.309 9.309 0 00-6.717 15.752C6.526 16.388 9.353 15 12.01 15c2.652 0 5.466 1.387 6.709 3.443A9.275 9.275 0 0021.309 12a9.308 9.308 0 00-9.308-9.308zM12 6c2.21 0 4 1.79 4 4s-1.79 4-4 4-4-1.79-4-4 1.79-4 4-4zm0 1.412a2.587 2.587 0 100 5.176 2.587 2.587 0 100-5.176z"/></g></svg>