<svg xmlns="http://www.w3.org/2000/svg" width="24" height="24"><g fill="none" fill-rule="evenodd"><path d="M0 0h24v24H0z"/><path fill="#4A4A4A" d="M16.867 1c1.112 0 2.026.862 2.124 1.96l.009.197V5h.446a2.855 2.855 0 012.827 2.41l.024.2.693 8.31a2.85 2.85 0 01-2.612 3.07l-.119.008-.12.002h-3.296l.15 1.79c.09 1.077-.705 2.027-1.8 2.187l-.15.016c-.086.006-.086.006-.171.007H3.128C1.953 23 1 22.084 1 20.954c.001-.086.001-.086.007-.171l.868-9.909C1.968 9.814 2.889 9 3.995 9H5V7.157a2.16 2.16 0 011.967-2.148L7.164 5h3.672c.055 0 .11.002.165.006L11 3.157c0-1.125.852-2.049 1.94-2.148L13.132 1h3.734zm-2.826 9.534H3.996a.524.524 0 00-.53.469l-.87 9.951c0 .283.238.512.532.512h11.744l.042-.002a.518.518 0 00.488-.55l-.83-9.91a.526.526 0 00-.531-.47zm-1.05-3.573l.009.196V9h1.04c1.057 0 1.945.743 2.104 1.731l.018.15.552 6.584h3.426c.035 0 .071 0 .107-.004a1.305 1.305 0 001.192-1.272l-.004-.144-.693-8.31A1.307 1.307 0 0019.6 6.543l-.154-.009h-6.538c.042.137.07.28.083.427zm-2.155-.343H7.164a.541.541 0 00-.53.43l-.01.11L6.622 9h4.753V7.157a.54.54 0 00-.431-.528l-.11-.011zm6.03-4h-3.733a.536.536 0 00-.522.43l-.011.11V5h4.799l.001-1.843a.538.538 0 00-.426-.528l-.107-.011z"/></g></svg>