<svg xmlns="http://www.w3.org/2000/svg" width="240" height="240"><g fill="none" fill-rule="evenodd"><path d="M0 0h240v240H0z"/><path fill="#FFF1D1" d="M189.56 73.68c23.005 28.812 50.497 55.719 50.44 83.793-.115 28.075-27.895 57.255-59.93 71.753-32.094 14.498-68.444 14.313-100.71-.246-32.323-14.56-60.506-43.432-72.642-81.643-12.135-38.15-8.224-85.575 14.954-114.51C44.851 3.956 87.24-6.365 117.722 3.833c30.426 10.198 48.831 40.975 71.837 69.848z"/><path d="M0 0h240v240H0z"/><g transform="translate(49.334 60.402)" fill-rule="nonzero"><path fill="#5390D0" stroke="#4A4A4A" stroke-width="4" d="M35.74 113.398c1.303 0 2.543.496 3.473 1.426.93.93 1.426 2.17 1.426 3.473a4.876 4.876 0 01-1.426 3.472l-22.94 22.94a5.091 5.091 0 01-3.473 1.364 4.876 4.876 0 01-3.472-1.426 4.828 4.828 0 010-6.882l22.94-22.94a4.878 4.878 0 013.473-1.427zm67.52 0c1.303 0 2.543.496 3.473 1.426l22.94 22.941a4.828 4.828 0 010 6.882c-.992.93-2.17 1.426-3.472 1.426s-2.542-.496-3.472-1.426l-22.94-22.94a4.829 4.829 0 010-6.883 4.876 4.876 0 013.472-1.426z"/><circle cx="71.392" cy="71.827" r="69" fill="#9B9B9B" stroke="#4A4A4A" stroke-width="4"/><circle cx="71.392" cy="71.827" r="60.021" fill="#FFCD1B" stroke="#4A4A4A" stroke-width="4"/><path fill="#FFA322" d="M117.422 77.398c0-27.062-21.938-49-49-49l-.756 49h49.756z" opacity=".642"/><path fill="#FFCD1B" stroke="#FFF" stroke-linecap="round" stroke-linejoin="round" stroke-width="4" d="M71.392 18.827c-29.271 0-53 23.729-53 53"/></g><path fill="#4A4A4A" d="M114.398 104.92a2.786 2.786 0 015.572 0v30.642h30.643a2.786 2.786 0 010 5.572h-33.429a2.785 2.785 0 01-2.78-2.616l-.006-.17V104.92z"/><g transform="rotate(30 29.24 303.165)"><rect width="18.553" height="13" x="16.915" y="2.039" fill="#FFC244" stroke="#4A4A4A" stroke-width="4" rx="5.638"/><path fill="#9CD4FF" stroke="#4A4A4A" stroke-linejoin="round" stroke-width="4" d="M50.836 40.145c0-15.57-11.36-28.192-25.372-28.192C11.45 11.953.09 24.575.09 40.145h50.745z"/><path stroke="#FFF" stroke-linecap="round" stroke-linejoin="round" stroke-width="3" d="M25.464 16.953c-5.571 0-10.584 2.557-14.225 6.602-2.808 3.12-4.81 7.12-5.673 11.59h39.795"/></g><g transform="scale(-1 1) rotate(30 -90.677 -144.371)"><rect width="18.553" height="13" x="16.915" y="2.039" fill="#FFC244" stroke="#4A4A4A" stroke-width="4" rx="5.638"/><path fill="#9CD4FF" stroke="#4A4A4A" stroke-linejoin="round" stroke-width="4" d="M50.836 40.145c0-15.57-11.36-28.192-25.372-28.192C11.45 11.953.09 24.575.09 40.145h50.745z"/><path stroke="#FFF" stroke-linecap="round" stroke-linejoin="round" stroke-width="3" d="M25.464 16.953c5.57 0 10.584 2.557 14.224 6.602 2.808 3.12 4.81 7.12 5.673 11.59H5.566"/></g></g></svg>