<svg xmlns="http://www.w3.org/2000/svg" width="38" height="24"><g fill="#6E6E6E" fill-rule="evenodd"><path d="M24.188 12l2.359-2.359a1.547 1.547 0 10-2.19-2.188L22 9.813l-2.359-2.36a1.547 1.547 0 10-2.188 2.188L19.811 12l-2.358 2.359a1.547 1.547 0 102.188 2.188L22 14.187l2.358 2.36c.303.302.698.453 1.094.453a1.547 1.547 0 001.094-2.641l-2.358-2.36z"/><path d="M12.092 20.254H34.27V3.746H12.093L3.873 12l8.22 8.253zM34.624 24H11.947c-.9 0-1.748-.352-2.386-.992l-8.574-8.61a3.406 3.406 0 010-4.795L9.559.994A3.347 3.347 0 0111.947 0h22.677A3.387 3.387 0 0138 3.39v17.22c0 1.87-1.514 3.39-3.376 3.39z"/></g></svg>