<svg xmlns="http://www.w3.org/2000/svg" width="16" height="16"><g fill="#3E3E3E" fill-rule="evenodd"><path d="M7.93 1.574a6.363 6.363 0 00-6.356 6.355 6.363 6.363 0 006.355 6.356 6.362 6.362 0 006.355-6.356A6.363 6.363 0 007.93 1.574m0 14.284C3.557 15.858 0 12.301 0 7.93S3.557 0 7.93 0c4.372 0 7.928 3.557 7.928 7.93 0 4.371-3.556 7.928-7.929 7.928"/><path d="M9.387 11l-1.18-2.172.88-4.276a1.11 1.11 0 00-.114-.764.911.911 0 00-.563-.452.822.822 0 00-.205-.026c-.424 0-.786.322-.882.784l-.965 4.685c-.056.268-.009.56.122.776l1.37 2.516a.91.91 0 00.563.451.835.835 0 00.684-.127c.424-.295.554-.921.29-1.394"/></g></svg>