<svg xmlns="http://www.w3.org/2000/svg" width="32" height="32"><g fill="none" fill-rule="evenodd"><path fill="#6E6E6E" d="M15.748.503C7.051.503 0 7.553 0 16.252 0 24.949 7.05 32 15.748 32s15.749-7.05 15.749-15.748S24.446.503 15.748.503"/><path fill="#FEFEFE" d="M15.749 25.68c-4.996 0-9.06-4.064-9.06-9.06A9.075 9.075 0 019.7 9.88a1.523 1.523 0 112.037 2.267 6.026 6.026 0 00-2 4.474 6.02 6.02 0 006.012 6.012 6.02 6.02 0 006.012-6.012 6.018 6.018 0 00-2.046-4.513A1.523 1.523 0 1121.73 9.82a9.066 9.066 0 013.08 6.8c0 4.996-4.065 9.06-9.06 9.06"/><path fill="#FEFEFE" d="M15.748 15.48a1.524 1.524 0 01-1.524-1.525V8.347a1.524 1.524 0 113.048 0v5.608c0 .842-.682 1.524-1.524 1.524"/></g></svg>