<svg xmlns="http://www.w3.org/2000/svg" width="43" height="40"><g fill="none" fill-rule="evenodd" transform="translate(1)"><rect width="27" height="18" x="4" y="11" stroke="#FFF" stroke-width="2" rx="2.273"/><path fill="#FFF" d="M29.75 0H4.25L0 13.2C0 15.85 1.903 18 4.25 18s4.25-2.15 4.25-4.801C8.5 15.85 10.403 18 12.75 18S17 15.85 17 13.199C17 15.85 18.902 18 21.25 18c2.347 0 4.25-2.15 4.25-4.801C25.5 15.85 27.401 18 29.75 18c2.347 0 4.25-2.15 4.25-4.801L29.75 0z"/><path stroke="#656565" stroke-linecap="square" stroke-width="1.6" d="M0 12.5h34"/><rect width="9" height="10" x="13" y="20" fill="#FFF" rx="1"/><g stroke="#FFF" transform="translate(24 22)"><circle cx="8" cy="8" r="8" fill="#656565" stroke-width="2.29"/><path stroke-linecap="round" stroke-linejoin="round" stroke-width="1.836" d="M4.571 11.207l6.636-6.636m-6.636 0l6.636 6.636"/></g></g></svg>