<svg xmlns="http://www.w3.org/2000/svg" width="44" height="40"><g fill="none" fill-rule="evenodd"><g transform="translate(1)"><rect width="27.008" height="18.371" x="5" y="11" fill="#FFF" fill-rule="nonzero" stroke="#6E6E6E" stroke-width="2" rx="2.273"/><path fill="#6E6E6E" d="M30.985 0H5.284L1 13.472c0 2.705 1.918 4.899 4.284 4.899 2.365 0 4.283-2.194 4.283-4.9 0 2.706 1.918 4.9 4.284 4.9 2.365 0 4.283-2.194 4.283-4.9 0 2.706 1.918 4.9 4.284 4.9 2.366 0 4.283-2.194 4.283-4.9 0 2.706 1.918 4.9 4.284 4.9 2.366 0 4.284-2.194 4.284-4.9L30.985 0z"/><path stroke="#FFF" stroke-linecap="square" stroke-width="1.6" d="M.685 12.43h34.269"/><rect width="9" height="10" x="14" y="20" fill="#6E6E6E" fill-rule="nonzero" rx="1"/></g><g stroke="#6E6E6E" transform="translate(26 22)"><circle cx="8" cy="8" r="8" fill="#FFF" fill-rule="nonzero" stroke-width="2.29"/><path d="M4.571 11.207l6.636-6.636m-6.636 0l6.636 6.636" stroke-linecap="round" stroke-linejoin="round" stroke-width="1.836"/></g></g></svg>