<svg xmlns="http://www.w3.org/2000/svg" width="72" height="72"><g fill="none" fill-rule="evenodd" transform="translate(-30 -709)"><circle cx="66" cy="745" r="36" fill="#F3F3F3" stroke="#F3F3F3" stroke-width="2"/><path fill="#F2CC38" d="M55.026 749.286a2.377 2.377 0 01-2.49 2.258l-13.274-.304a2.379 2.379 0 01-2.26-2.492l1.867-12.31a2.377 2.377 0 012.492-2.258l10.106.18a2.377 2.377 0 012.257 2.49l1.302 12.436z"/><path stroke="#585857" stroke-width="1.5" d="M55.026 749.286a2.377 2.377 0 01-2.49 2.258l-13.274-.304a2.379 2.379 0 01-2.26-2.492l1.867-12.31a2.377 2.377 0 012.492-2.258l10.106.18a2.377 2.377 0 012.257 2.49l1.302 12.436z"/><path stroke="#FFF" stroke-linecap="round" stroke-linejoin="round" d="M38.507 748.922l1.47-11.314s-.048-1.907 1.345-1.866c1.393.042 10.343.013 10.343.013"/><path fill="#FFF" d="M63.02 763.376a5.583 5.583 0 11-11.167.129 5.584 5.584 0 1111.167-.13"/><path stroke="#5A5B5C" stroke-linecap="round" stroke-linejoin="round" stroke-width="1.5" d="M63.02 763.376a5.583 5.583 0 11-11.167.129 5.584 5.584 0 1111.167-.13z"/><path fill="#F2CC38" d="M76.223 738.36a2.016 2.016 0 11-4.032.046 2.016 2.016 0 014.032-.046"/><path stroke="#585857" stroke-width="1.5" d="M76.223 738.36a2.016 2.016 0 11-4.032.046 2.016 2.016 0 014.032-.046z"/><path fill="#FFF" d="M61.363 728.513c-.008.195-.01.393-.009.59.073 6.301 5.24 11.35 11.54 11.277l-.054-4.71a6.7 6.7 0 01-6.777-6.621c-.002-.2.008-.396.023-.59"/><path stroke="#5A5B5C" stroke-linecap="round" stroke-linejoin="round" stroke-width="1.5" d="M61.363 728.513c-.008.195-.01.393-.009.59.073 6.301 5.24 11.35 11.54 11.277l-.054-4.71a6.7 6.7 0 01-6.777-6.621c-.002-.2.008-.396.023-.59"/><path fill="#FFF" d="M64.45 742.352c-.046-3.958.828-7.553 2.276-10.166-1.45-2.562-3.414-4.168-5.609-4.142-4.519.052-8.108 6.516-8.016 14.44"/><path stroke="#5A5B5C" stroke-linecap="round" stroke-linejoin="round" stroke-width="1.5" d="M64.45 742.352c-.046-3.958.828-7.553 2.276-10.166-1.45-2.562-3.414-4.168-5.609-4.142-4.519.052-8.108 6.516-8.016 14.44"/><path fill="#B5B4B1" d="M74.562 742.441c-.774 0-1.411-.63-1.42-1.403a1.42 1.42 0 011.404-1.437l3.78-.043c.79 0 1.427.63 1.436 1.403a1.421 1.421 0 01-1.403 1.437l-3.797.043z"/><path fill="#585857" d="M78.343 739.119h-.023l-3.78.044a1.849 1.849 0 00-1.31.56 1.848 1.848 0 00-.528 1.32 1.866 1.866 0 001.859 1.838l3.802-.044a1.846 1.846 0 001.308-.56 1.85 1.85 0 00.53-1.32 1.866 1.866 0 00-1.86-1.838m0 .878a.981.981 0 01.012 1.962l-3.78.044h-.012a.981.981 0 01-.011-1.962l3.78-.044h.012"/><path fill="#F2CC38" d="M50.32 760.108a.446.446 0 01-.146-.025l-1.8-.633a.44.44 0 01-.26-.585l1.336-3.169a.438.438 0 01.536-.248l1.917.602a.44.44 0 01.268.6l-1.451 3.2a.44.44 0 01-.4.258"/><path fill="#585857" d="M49.855 754.989a.878.878 0 00-.81.537l-1.335 3.168a.88.88 0 00.518 1.17l1.8.633a.877.877 0 001.091-.465l1.452-3.2a.876.876 0 00-.536-1.2l-1.917-.603a.872.872 0 00-.263-.04m0 .878l1.917.602-1.452 3.2-1.801-.633 1.336-3.17"/><path fill="#F2CC38" d="M85.187 741.115a2.292 2.292 0 11-4.585.052 2.292 2.292 0 014.585-.052"/><path stroke="#585857" stroke-linecap="round" stroke-linejoin="round" stroke-width="1.5" d="M85.187 741.115a2.292 2.292 0 11-4.585.052 2.292 2.292 0 014.585-.052z"/><path fill="#B5B4B1" d="M53.27 753.09l11.834-.137.087 7.536-15.281.177z"/><path stroke="#585857" stroke-width="1.5" d="M53.27 753.09l11.834-.137.087 7.536-15.281.177z"/><path fill="#B5B4B1" d="M84.679 754.216l-2.623-10.659-4.115-1.593 1.038 11.826-6.623 4.335-9.59.11a2.524 2.524 0 10.058 5.05l11.154-.13a2.525 2.525 0 002.496-2.552 2.514 2.514 0 00-.579-1.577l4.78-4.175 4.004-.635z"/><path stroke="#585857" stroke-width="1.5" d="M84.679 754.216l-2.623-10.659-4.115-1.593 1.038 11.826-6.623 4.335-9.59.11a2.524 2.524 0 10.058 5.05l11.154-.13a2.525 2.525 0 002.496-2.552 2.514 2.514 0 00-.579-1.577l4.78-4.175 4.004-.635z"/><path fill="#FFF" d="M90.98 763.053a5.584 5.584 0 11-11.167.128 5.584 5.584 0 0111.168-.128"/><path stroke="#5A5B5C" stroke-linecap="round" stroke-linejoin="round" stroke-width="1.5" d="M90.98 763.053a5.584 5.584 0 11-11.167.128 5.584 5.584 0 0111.168-.128z"/><path fill="#B5B4B1" d="M87.94 763.088a2.544 2.544 0 11-5.088.058 2.544 2.544 0 015.088-.058"/><path stroke="#585857" stroke-width="1.5" d="M87.94 763.088a2.544 2.544 0 11-5.088.058 2.544 2.544 0 015.088-.058z"/><path fill="#B5B4B1" d="M59.98 763.411a2.543 2.543 0 11-5.086.059 2.543 2.543 0 015.086-.059"/><path stroke="#585857" stroke-width="1.5" d="M59.98 763.411a2.543 2.543 0 11-5.086.059 2.543 2.543 0 015.086-.059z"/><path fill="#B5B4B1" d="M81.851 753.624a6.45 6.45 0 00-3.638 8.365l12.003-4.727a6.451 6.451 0 00-8.365-3.638"/><path stroke="#585857" stroke-width="1.5" d="M81.851 753.624a6.45 6.45 0 00-3.638 8.365l12.003-4.727a6.451 6.451 0 00-8.365-3.638z"/><path fill="#B5B4B1" d="M57.541 755.07a8.302 8.302 0 00-8.088 8.51l16.599-.423a8.303 8.303 0 00-8.511-8.087"/><path stroke="#585857" stroke-width="1.5" d="M57.541 755.07a8.302 8.302 0 00-8.088 8.51l16.599-.423a8.303 8.303 0 00-8.511-8.087z"/><path fill="#FFF" d="M68.857 751.11a2.3 2.3 0 01-2.274 2.327l-12.791.147a2.3 2.3 0 11-.053-4.6l12.79-.147a2.3 2.3 0 012.328 2.272"/><path stroke="#5A5B5C" stroke-linecap="round" stroke-linejoin="round" stroke-width="1.5" d="M68.857 751.11a2.3 2.3 0 01-2.274 2.327l-12.791.147a2.3 2.3 0 11-.053-4.6l12.79-.147a2.3 2.3 0 012.328 2.272z"/><path fill="#B5B4B1" d="M82.93 744.171l-5.421-.922-.047-4.091 5.398-1.047z"/><path stroke="#585857" stroke-width="1.5" d="M82.93 744.171l-5.421-.922-.047-4.091 5.398-1.047z"/><path fill="#63CEAD" d="M71.286 747.344c.28-2.888-2.912-2.93-3.202-2.875l-3.408.04a5.995 5.995 0 00-.311-1.837l-11.224-.347a5.986 5.986 0 005.618 8.238l1.522-.017 5.091-.06-.467 5.801 5.36.813 1.02-9.756"/><path stroke="#585857" stroke-linecap="round" stroke-linejoin="round" stroke-width="1.5" d="M71.286 747.344c.28-2.888-2.912-2.93-3.202-2.875l-3.408.04a5.995 5.995 0 00-.311-1.837l-11.224-.347a5.986 5.986 0 005.618 8.238l1.522-.017 5.091-.06-.467 5.801 5.36.813 1.02-9.756"/><path fill="#FFF" d="M68.706 754.446l-.012.001-1.546.018-1.292.014a.908.908 0 00-.897.918l.033 2.85 2.2-.026v-.012l1.545-.017 3.745-.032a3.745 3.745 0 00-3.776-3.714"/><path stroke="#5A5B5C" stroke-linecap="round" stroke-linejoin="round" stroke-width="1.5" d="M68.706 754.446l-.012.001-1.546.018-1.292.014a.908.908 0 00-.897.918l.033 2.85 2.2-.026v-.012l1.545-.017 3.745-.032a3.745 3.745 0 00-3.776-3.714z"/><path fill="#F2CC38" d="M73.365 740.587a2.016 2.016 0 11-4.031.046 2.016 2.016 0 014.03-.046"/><path stroke="#585857" stroke-width="1.5" d="M73.365 740.587a2.016 2.016 0 11-4.031.046 2.016 2.016 0 014.03-.046z"/><path fill="#FFF" d="M58.49 733.307c.87 5.502 5.664 9.678 11.4 9.611l-.055-4.708a6.703 6.703 0 01-6.584-5.095"/><path stroke="#5A5B5C" stroke-linecap="round" stroke-linejoin="round" stroke-width="1.5" d="M58.49 733.307c.87 5.502 5.664 9.678 11.4 9.611l-.055-4.708a6.703 6.703 0 01-6.584-5.095"/><path fill="#F2CC38" d="M65.67 731.49c.29.14.605.236.935.28.15.021.302.034.457.033a3.11 3.11 0 003.028-2.577l.469-1.089-6.267-1.681a2.005 2.005 0 01-.855-.487l-4.046 3.628 6.28 1.892zm1.142-8.546l4.71 1.263a5.959 5.959 0 00-1.47-4.169l-3.24 2.906z"/><path fill="#F2CC38" d="M67.091 718.204a5.952 5.952 0 00-7.27 4.244l-2.098 6.647 1.668.502 4.046-3.628a2.014 2.014 0 01-.574-1.99 2.022 2.022 0 012.477-1.43l1.472.395 3.24-2.906a5.916 5.916 0 00-2.96-1.834"/><path stroke="#5A5B5C" stroke-linecap="round" stroke-linejoin="round" stroke-width="1.5" d="M62.863 723.979a2.022 2.022 0 012.477-1.43l6.182 1.658a5.95 5.95 0 00-11.701-1.76l-2.098 6.648 7.947 2.394c.29.14.605.237.935.282.15.02.302.034.457.032a3.111 3.111 0 003.028-2.577l.469-1.089-6.267-1.681a2.022 2.022 0 01-1.429-2.477z"/><path fill="#B5B4B1" d="M71.522 724.207l-6.182-1.658a2.022 2.022 0 00-1.048 3.907l6.266 1.68.776-2.662c.11-.423.17-.847.188-1.267"/><path stroke="#585857" stroke-width="1.5" d="M71.522 724.207l-6.182-1.658a2.022 2.022 0 00-1.048 3.907l6.266 1.68.776-2.662c.11-.423.17-.847.188-1.267z"/><path stroke="#FFF" stroke-linecap="round" stroke-linejoin="round" d="M59.003 727.668l1.94-5.432s1.657-4.09 6-3.25m-16.352 43.322s.545-5.816 7.076-6.283m21.21 4.624s-.606-4.735 3.873-6.365m-3.596-9.87l.843 8.489m-1.382-10.433l-.041-2.486 3.339-.748"/></g></svg>