<svg xmlns="http://www.w3.org/2000/svg" width="16" height="16"><g fill="none" fill-rule="evenodd"><path d="M0 0h16v16H0z"/><path fill="#4A4A4A" d="M7.965 1.792a5.61 5.61 0 015.357 3.532l-6.004-.1H7.3c-1.397.018-2.497 1.195-2.456 2.628.04 1.432 1.205 2.577 2.601 2.559l6.23.048c-.034.463-.079 1.05-.094 1.177a2.934 2.934 0 01-2.063 2.473 3.003 3.003 0 01-1.116.112l-.227-.029-7.826-.075.15-6.57a5.613 5.613 0 015.466-5.755zM6.057 7.835c-.02-.742.547-1.352 1.27-1.366l6.07.102v.028c.005.328.008.766.01 1.287v.05l.002 1.277-5.986-.047a1.359 1.359 0 01-1.366-1.33z"/></g></svg>