<svg xmlns="http://www.w3.org/2000/svg" width="32" height="32"><g fill="none" fill-rule="evenodd" transform="translate(.444 .194)"><rect width="31.111" height="31.111" fill="#4A4A4A" rx="4"/><g fill-rule="nonzero"><path fill="#FFF" d="M10.575 11.754v14.342c0 .374.136.697.41.97.268.27.586.404.952.409.366-.005.684-.14.953-.408a1.33 1.33 0 00.41-.971V11.754c.41-.144 1.946-1.513 1.946-1.952V4.034a.664.664 0 00-.205-.485.664.664 0 00-.485-.205.663.663 0 00-.486.205.664.664 0 00-.204.485v4.485a.663.663 0 01-.205.485.663.663 0 01-.485.205.662.662 0 01-.486-.205.664.664 0 01-.205-.485V4.034a.664.664 0 00-.204-.485.663.663 0 00-.485-.205.663.663 0 00-.486.205.664.664 0 00-.204.485v4.485a.663.663 0 01-.205.485.663.663 0 01-.486.205.662.662 0 01-.485-.205.662.662 0 01-.205-.485V4.034a.663.663 0 00-.204-.485.663.663 0 00-.486-.205.663.663 0 00-.485.205.665.665 0 00-.205.485v5.768c0 .439 1.82 1.808 2.23 1.952z"/><path fill="#000" d="M12.015 27.512c-.014 0-.028-.004-.043-.004-.015 0-.029.004-.044.004h.087zm8.812.283c-.015 0-.029-.004-.044-.004-.015 0-.029.004-.044.004h.088z"/><path fill="#FFF" d="M17.82 15.199h1.566v11.18c0 .374.137.697.41.97.268.27.586.404.953.409.365-.005.684-.14.952-.409.273-.273.41-.596.41-.97V3.468a.664.664 0 00-.205-.485.664.664 0 00-.485-.205h-.496c-.949 0-1.76.338-2.436 1.013-.676.676-1.014 1.488-1.014 2.437v8.626c0 .093.034.174.103.242a.33.33 0 00.242.103z"/></g></g></svg>