<svg xmlns="http://www.w3.org/2000/svg" width="32" height="32"><g fill="none" fill-rule="evenodd" transform="translate(.64 .89)"><rect width="30.72" height="30.72" fill="#F66" rx="4"/><g fill-rule="nonzero"><path fill="#FFF" d="M10.442 11.606v14.162c0 .37.134.689.404.958.266.266.58.399.941.403a1.31 1.31 0 00.941-.403c.27-.27.404-.589.404-.958V11.606c.405-.142 1.922-1.494 1.922-1.927V3.983a.656.656 0 00-.202-.479.656.656 0 00-.48-.202.655.655 0 00-.478.202.655.655 0 00-.203.48v4.428a.655.655 0 01-.202.479.654.654 0 01-.48.202.653.653 0 01-.478-.202.655.655 0 01-.202-.479V3.983a.656.656 0 00-.203-.479.655.655 0 00-.479-.202.655.655 0 00-.479.202.655.655 0 00-.202.48v4.428a.655.655 0 01-.202.479.654.654 0 01-.48.202.653.653 0 01-.478-.202.654.654 0 01-.203-.479V3.983a.655.655 0 00-.202-.479.655.655 0 00-.48-.202.655.655 0 00-.478.202.657.657 0 00-.202.48v5.695c0 .433 1.796 1.785 2.2 1.927z"/><path fill="#000" d="M11.864 27.166c-.014 0-.028-.004-.043-.004-.014 0-.028.004-.043.004h.086zm8.701.28c-.015 0-.028-.005-.043-.005-.015 0-.029.005-.043.005h.086z"/><path fill="#FFF" d="M17.596 15.007h1.546v11.04c0 .37.135.69.405.959.265.265.58.398.94.403a1.31 1.31 0 00.942-.403c.27-.27.404-.59.404-.959V3.424a.656.656 0 00-.202-.479.655.655 0 00-.479-.202h-.49a3.28 3.28 0 00-2.406 1c-.667.668-1 1.47-1 2.407v8.517a.33.33 0 00.1.24.326.326 0 00.24.1z"/><path fill="#F66" stroke="#F66" stroke-width="2" d="M5.525 23.72L23.643 5.6l1.552 1.552L7.077 25.271z"/><path fill="#FFF" d="M4.476 24.492L24.304 4.664l1.94 1.94L6.416 26.432z"/></g></g></svg>