<svg xmlns="http://www.w3.org/2000/svg" width="48" height="61"><defs><filter id="a" width="232.6%" height="612.8%" x="-66.3%" y="-256.4%" filterUnits="objectBoundingBox"><feGaussianBlur in="SourceGraphic" stdDeviation="4"/></filter></defs><g fill="none" fill-rule="evenodd" transform="translate(8)"><ellipse cx="9.048" cy="49.374" fill="#000" filter="url(#a)" opacity=".4" rx="9.048" ry="2.34"/><path fill="#2ABB9B" d="M9.67 2h28.226l-9.523 11 9.523 11H9.67z"/><path fill="#4A4A4A" fill-rule="nonzero" d="M9.664 26v22.037a1 1 0 11-2 0V21.983c0-.036.002-.07.006-.105V2a2 2 0 012-2h28.226c1.714 0 2.634 2.014 1.513 3.31L31.019 13l8.39 9.69c1.12 1.296.2 3.31-1.513 3.31H9.664zM9.67 2v22h28.226l-9.523-11 9.523-11H9.67z"/><path stroke="#FFF" stroke-linecap="round" stroke-linejoin="round" stroke-width="2" d="M11.779 17.215V3.983h13.343"/></g></svg>