<svg xmlns="http://www.w3.org/2000/svg" width="93" height="118"><g fill="none" fill-rule="evenodd"><path fill="#53A28C" d="M63.405 25.989c0 .142-.113.256-.252.256s-.252-.114-.252-.256c0-.141.113-.256.252-.256.14 0 .252.115.252.256zm-32.931 58.32c2.092.789 3.528 1.593 4.536 2.5h14.157c-1.21-7.834-6.995-12.415-18.648-15.617V57.716a36.769 36.769 0 0110.811 5.231l5.846-10.37a35.472 35.472 0 00-16.218-6.472v-5.41h-9.072v5.123C10.858 46.992 3.52 53.463 3.52 63.214v.174c0 10.55 6.194 15.336 18.749 18.794v4.612h8.205v-2.485zM16.26 62.589v-.174c0-2.84 1.744-4.965 6.018-5.498v12.056C17.48 67.2 16.26 65.427 16.26 62.59z"/><path fill="#6FC1AC" d="M8.056 89.094l-6.789 10.11a43.375 43.375 0 0020.573 8.418v8.952h9.072v-8.772c10.983-1.153 18.472-7.538 18.472-17.468v-.174a21.58 21.58 0 00-.247-3.35H34.99a5.162 5.162 0 011.673 4.057v.18c0 3.192-2.092 5.052-6.19 5.672v-9.91H22.28v9.47c-5.151-1.067-9.506-3.547-14.223-7.185z"/><path fill="#53A28C" d="M73.662 77.648c1.27.41 2.453 1.064 3.482 1.926h10.937c-.932-6.05-5.403-9.586-14.42-12.061V57.11c2.98.876 5.8 2.24 8.347 4.038l4.536-8.009a27.366 27.366 0 00-12.52-4.995v-4.176H67.02v3.97c-8.482.887-14.137 5.888-14.137 13.415v.138c0 8.142 4.778 11.841 14.475 14.511v3.587h6.33l-.025-1.942zm-10.977-16.77v-.139c0-2.193 1.35-3.833 4.646-4.243v9.305c-3.704-1.368-4.646-2.736-4.646-4.924z"/><path fill="#6FC1AC" d="M56.36 81.342l-5.252 7.804a33.492 33.492 0 0015.886 6.502v6.912h7.005v-6.774c8.483-.891 14.274-5.82 14.274-13.486v-.138a16.983 16.983 0 00-.192-2.588H77.144a3.97 3.97 0 011.296 3.136v.138c0 2.465-1.613 3.9-4.778 4.381v-7.655h-6.33v7.312c-3.972-.82-7.339-2.73-10.973-5.544z"/><path fill="#53A28C" d="M52.962 28.156a8.409 8.409 0 012.777 1.538h8.72c-.746-4.822-4.31-7.645-11.497-9.587V11.78a22.718 22.718 0 016.653 3.202l3.599-6.384a21.883 21.883 0 00-9.984-3.987V1.302h-5.585V4.47c-6.763.712-11.274 4.693-11.274 10.698v.108c0 6.497 3.81 9.443 11.541 11.575V29.7h5.04l.01-1.543zm-8.754-13.373v-.107c0-1.748 1.073-3.075 3.704-3.382v7.42c-2.953-1.092-3.704-2.194-3.704-3.93z"/><path fill="#6FC1AC" d="M39.163 31.103l-4.188 6.225a26.744 26.744 0 0012.67 5.185v5.514h5.585V42.62c6.763-.707 11.38-4.611 11.38-10.76v-.113a13.532 13.532 0 00-.151-2.05h-8.72a3.156 3.156 0 011.008 2.496v.113c0 1.962-1.29 3.11-3.81 3.494v-6.1h-5.04v5.826c-3.15-.656-5.836-2.183-8.734-4.422z"/><path stroke="#585857" stroke-linecap="round" stroke-linejoin="round" stroke-width="1.008" d="M49.157 86.82c-1.214-7.84-7-12.42-18.678-15.623v-13.47a36.725 36.725 0 0110.81 5.226l5.847-10.371a35.588 35.588 0 00-16.219-6.472v-5.405h-9.072v5.124C10.863 46.997 3.52 53.469 3.52 63.219v.18c0 10.55 6.194 15.335 18.749 18.794v14.09c-5.146-1.06-9.506-3.545-14.213-7.173L1.272 99.209a43.38 43.38 0 0020.573 8.424v8.95h9.072v-8.776c10.988-1.148 18.483-7.532 18.483-17.462v-.175a22.088 22.088 0 00-.242-3.35zm-32.89-24.221v-.174c0-2.839 1.743-4.965 6.017-5.498v12.056c-4.798-1.773-6.018-3.545-6.018-6.384zm20.406 28.458c0 3.187-2.097 5.052-6.194 5.672v-12.41c2.092.784 3.528 1.594 4.536 2.5a5.164 5.164 0 011.678 4.059l-.02.179z"/><path stroke="#FFF" stroke-linecap="round" stroke-linejoin="round" stroke-width=".806" d="M2.653 98.973l5.655-8.408c5.01 3.746 9.173 5.775 13.774 6.723l1.21.25v-16.13l-.746-.204C9.422 77.586 4.528 72.764 4.528 63.398v-.179c0-8.962 6.673-15.228 17.408-16.355l.902-.093V41.73h7.056v5.287l.882.113a34.444 34.444 0 0115.02 5.77"/><path stroke="#585857" stroke-linecap="round" stroke-linejoin="round" stroke-width="1.008" d="M88.086 79.585c-.932-6.052-5.403-9.587-14.42-12.062V57.122c2.981.873 5.8 2.237 8.347 4.037l4.536-8.008a27.453 27.453 0 00-12.524-5.001v-4.171h-7.001v3.966c-8.482.891-14.112 5.887-14.112 13.42v.137c0 8.142 4.778 11.842 14.475 14.511v10.883c-3.972-.82-7.338-2.74-10.972-5.544l-5.252 7.804a33.488 33.488 0 0015.861 6.502v6.912h7.006v-6.774c8.482-.891 14.273-5.82 14.273-13.486v-.138a16.848 16.848 0 00-.217-2.587zM62.69 60.883v-.134c0-2.193 1.35-3.837 4.646-4.247v9.31c-3.704-1.368-4.646-2.736-4.646-4.93zm15.755 21.976c0 2.464-1.613 3.899-4.778 4.38v-9.586a10.451 10.451 0 013.482 1.932 3.967 3.967 0 011.296 3.135v.139z"/><path stroke="#FFF" stroke-linecap="round" stroke-linejoin="round" stroke-width=".806" d="M52.494 88.915l4.107-6.108c3.81 2.824 7.006 4.36 10.534 5.094l1.21.25V75.23l-.746-.205c-10.01-2.756-13.73-6.425-13.73-13.522v-.138c0-6.794 5.07-11.544 13.236-12.4l.902-.092v-3.868h4.99v4.053l.881.112a26.25 26.25 0 0111.29 4.3"/><path stroke="#585857" stroke-linecap="round" stroke-linejoin="round" stroke-width="1.008" d="M64.464 29.704a9.434 9.434 0 00-1.23-3.449.257.257 0 00.214-.294.256.256 0 00-.29-.218.244.244 0 00-.181.087c-1.764-2.562-5.01-4.37-10.01-5.744v-8.295c2.376.7 4.623 1.788 6.653 3.223l3.599-6.39a21.919 21.919 0 00-9.984-3.98V1.312H47.65v3.166c-6.763.707-11.274 4.694-11.274 10.699v.107c0 6.497 3.81 9.444 11.541 11.57v8.68c-3.165-.656-5.851-2.183-8.75-4.422l-4.187 6.225a26.8 26.8 0 0012.67 5.186v5.508h5.585v-5.38c6.763-.712 11.38-4.642 11.38-10.76v-.108a13.531 13.531 0 00-.151-2.08zm-20.251-14.91v-.108c0-1.747 1.073-3.074 3.704-3.387v7.424c-2.953-1.091-3.704-2.203-3.704-3.93zm12.565 17.523c0 1.962-1.29 3.11-3.81 3.49v-7.64a8.412 8.412 0 012.776 1.537 3.166 3.166 0 011.008 2.5l.026.113z"/><path stroke="#FFF" stroke-linecap="round" stroke-linejoin="round" stroke-width=".806" d="M48.184 25.866c-7.872-2.172-10.8-5.032-10.8-10.58v-.108c0-5.298 3.971-9.008 10.372-9.68l.902-.097V2.327h3.569M48.925 36.78V26.07l-.74-.205m-11.82 11.226l3.025-4.519c2.983 2.188 5.513 3.387 8.306 3.966l1.21.251m3.3-34.453v3.208l.882.113a20.71 20.71 0 018.77 3.29"/><path fill="#EED554" d="M92.274 26.768l-2.389-4.612 2.39-4.611a.669.669 0 00-.147-.707.64.64 0 00-.695-.149l-4.536 2.429-4.536-2.429a.612.612 0 00-.726.113.641.641 0 00-.11.743l2.388 4.611-2.389 4.612a.634.634 0 00.111.738c.192.195.486.24.726.112l4.536-2.428 4.536 2.428a.617.617 0 00.73-.112.637.637 0 00.111-.738z"/><path stroke="#585857" stroke-linecap="round" stroke-linejoin="round" stroke-width="1.008" d="M92.274 26.768l-2.389-4.612 2.39-4.611a.669.669 0 00-.147-.707.64.64 0 00-.695-.149l-4.536 2.429-4.536-2.429a.612.612 0 00-.726.113.641.641 0 00-.11.743l2.388 4.611-2.389 4.612a.634.634 0 00.111.738c.192.195.486.24.726.112l4.536-2.428 4.536 2.428a.617.617 0 00.73-.112.637.637 0 00.111-.738h0z"/><path fill="#EED554" d="M81.136 41.007l-1.693-3.259 1.693-3.264a.47.47 0 00-.103-.5.453.453 0 00-.492-.104l-3.205 1.727-3.206-1.727a.438.438 0 00-.504.082.446.446 0 00-.075.512l1.693 3.259-1.693 3.264a.446.446 0 00.075.512.437.437 0 00.504.082l3.206-1.721 3.205 1.721c.168.084.37.05.504-.082a.444.444 0 00.091-.502z"/><path stroke="#585857" stroke-linecap="round" stroke-linejoin="round" stroke-width="1.008" d="M81.136 41.007l-1.693-3.259 1.693-3.264a.47.47 0 00-.103-.5.453.453 0 00-.492-.104l-3.205 1.727-3.206-1.727a.438.438 0 00-.504.082.446.446 0 00-.075.512l1.693 3.259-1.693 3.264a.446.446 0 00.075.512.437.437 0 00.504.082l3.206-1.721 3.205 1.721c.168.084.37.05.504-.082a.444.444 0 00.091-.502z"/><path fill="#EED554" d="M74.992 16.986l-1.698-3.258 1.698-3.26a.471.471 0 00-.098-.504.454.454 0 00-.496-.105l-3.211 1.722-3.205-1.722a.428.428 0 00-.504.077.457.457 0 00-.081.512l1.693 3.26-1.693 3.258a.457.457 0 00.08.512.43.43 0 00.505.077l3.205-1.721 3.21 1.721a.43.43 0 00.505-.077.457.457 0 00.09-.492z"/><path stroke="#585857" stroke-linecap="round" stroke-linejoin="round" stroke-width="1.008" d="M74.992 16.986l-1.698-3.258 1.698-3.26a.471.471 0 00-.098-.504.454.454 0 00-.496-.105l-3.211 1.722-3.205-1.722a.428.428 0 00-.504.077.457.457 0 00-.081.512l1.693 3.26-1.693 3.258a.457.457 0 00.08.512.43.43 0 00.505.077l3.205-1.721 3.21 1.721a.43.43 0 00.505-.077.457.457 0 00.09-.492z"/><path fill="#EED554" d="M10.843 21.096L8.011 25.42l-5.11.057a.649.649 0 00-.547.465.663.663 0 00.208.693l4.254 2.88.05 5.195a.633.633 0 00.448.591.62.62 0 00.692-.248l2.832-4.324 5.11-.057a.616.616 0 00.59-.45.636.636 0 00-.252-.703l-4.248-2.884-.056-5.196a.632.632 0 00-.447-.591.618.618 0 00-.692.248z"/><path stroke="#585857" stroke-linecap="round" stroke-linejoin="round" stroke-width="1.008" d="M10.843 21.096L8.011 25.42l-5.11.057a.649.649 0 00-.547.465.663.663 0 00.208.693l4.254 2.88.05 5.195a.633.633 0 00.448.591.62.62 0 00.692-.248l2.832-4.324 5.11-.057a.616.616 0 00.59-.45.636.636 0 00-.252-.703l-4.248-2.884-.056-5.196a.632.632 0 00-.447-.591.618.618 0 00-.692.248z"/><path fill="#EED554" d="M28.458 24.298l-2.016 3.074-3.624.041a.461.461 0 00-.386.33.471.471 0 00.144.49l3.024 2.05.036 3.658a.447.447 0 00.319.422.44.44 0 00.492-.18l2.016-3.075 3.624-.041a.44.44 0 00.418-.318.458.458 0 00-.176-.512l-3.024-2.05-.04-3.684a.44.44 0 00-.313-.425.44.44 0 00-.494.22z"/><path stroke="#585857" stroke-linecap="round" stroke-linejoin="round" stroke-width="1.008" d="M28.458 24.298l-2.016 3.074-3.624.041a.461.461 0 00-.386.33.471.471 0 00.144.49l3.024 2.05.036 3.658a.447.447 0 00.319.422.44.44 0 00.492-.18l2.016-3.075 3.624-.041a.44.44 0 00.418-.318.458.458 0 00-.176-.512l-3.024-2.05-.04-3.684a.44.44 0 00-.313-.425.44.44 0 00-.494.22z"/><path fill="#EED554" d="M21.8 13.892l-2.016 3.074-3.624.04a.465.465 0 00-.386.33.47.47 0 00.144.49l3.024 2.05.036 3.684a.441.441 0 00.811.247l2.016-3.075 3.624-.036a.45.45 0 00.418-.323.445.445 0 00-.176-.512l-3.024-2.05-.04-3.689a.445.445 0 00-.313-.425.44.44 0 00-.494.195z"/><path stroke="#585857" stroke-linecap="round" stroke-linejoin="round" stroke-width="1.008" d="M21.8 13.892l-2.016 3.074-3.624.04a.465.465 0 00-.386.33.47.47 0 00.144.49l3.024 2.05.036 3.684a.441.441 0 00.811.247l2.016-3.075 3.624-.036a.45.45 0 00.418-.323.445.445 0 00-.176-.512l-3.024-2.05-.04-3.689a.445.445 0 00-.313-.425.44.44 0 00-.494.195h0z"/></g></svg>