<svg xmlns="http://www.w3.org/2000/svg" width="24" height="24"><g fill="none" fill-rule="evenodd"><path d="M0 0h24v24H0z"/><path fill="#2ABB9B" d="M21 13.368a1 1 0 01.993.883l.007.117V21a1 1 0 01-.883.993L21 22H3a1 1 0 01-.993-.883L2 21v-6.632a1 1 0 011.993-.117l.007.117V20h16v-5.632a1 1 0 01.883-.993l.117-.007zM12.05 3a1 1 0 01.99.887l.006.117-.043 9.216 3.396-3.303a1 1 0 011.479 1.341l-.085.093-5.068 4.93a1 1 0 01-1.304.079l-.093-.081-5.032-4.93a1 1 0 011.305-1.511l.095.082 3.308 3.242.042-9.166A1 1 0 0112.05 3z"/></g></svg>