<svg fill="none" viewBox="0 0 222 160" xmlns="http://www.w3.org/2000/svg"><path d="M121.04 18.462l35.721 35.721v73.892l-12.205 12.699-12.308-12.91-12.12 12.91-12.207-12.91-12.221 12.91-11.636-12.91-12.792 12.91-12.192-12.91V28.231c0-5.395 4.373-9.768 9.768-9.768h52.191z" fill="#F4F4F4" stroke="#E4E4E4" stroke-linejoin="round" stroke-width="3.175"/><path d="M125.5 53.883h31.258l-35.165-35.085v31.178a3.907 3.907 0 003.907 3.907z" fill="#EBEBEB" stroke="#E4E4E4" stroke-linejoin="round" stroke-width="3.175"/><path d="M74.507 94.886h43.957M74.507 76.581h43.957-43.957zm0 36.63h64.668-64.668z" stroke="#D8D8D8" stroke-linecap="round" stroke-width="4.762"/><path d="M154.32 46.789c-13.216 0-23.932 10.714-23.932 23.932 0 4.817 1.429 9.297 3.876 13.052l-3.546 9.218.011.005c-.037.118-.056.24-.058.364 0 .713.578 1.293 1.292 1.293.152 0 .297-.032.434-.08l.058-.022.032-.012 8.848-3.72a23.812 23.812 0 0012.985 3.834c13.217 0 23.932-10.716 23.932-23.932 0-13.217-10.715-23.932-23.932-23.932z" fill="#F4F4F4" stroke="#E4E4E4" stroke-width="3.175"/><path d="M153.83 53.626c-9.711 0-17.583 7.872-17.583 17.582" stroke="#fff" stroke-linecap="round" stroke-linejoin="round" stroke-width="3.175"/><path d="M152.13 70.628h2.468v2.58h-2.468v-2.58zm-4.179-9.933c0-1.786.504-3.22 1.513-4.303 1.008-1.091 2.393-1.637 4.154-1.637 1.629 0 2.931.467 3.906 1.401.984.926 1.476 2.113 1.476 3.56 0 .876-.182 1.587-.546 2.132-.355.546-1.079 1.348-2.17 2.406-.794.769-1.31 1.422-1.55 1.96-.232.528-.347 1.314-.347 2.356h-2.208c0-1.183.141-2.133.422-2.853.281-.727.897-1.558 1.848-2.492l.992-.98c.297-.281.537-.574.719-.88.331-.538.496-1.096.496-1.674 0-.81-.244-1.513-.732-2.109-.479-.595-1.277-.892-2.393-.892-1.381 0-2.335.512-2.864 1.537-.298.57-.468 1.393-.509 2.468h-2.207z" fill="#D8D8D8"/><path d="M108.07 24.322H72.752a7.814 7.814 0 00-7.814 7.814v78.787" stroke="#fff" stroke-linecap="round" stroke-linejoin="round" stroke-width="3.175"/></svg>