<svg xmlns="http://www.w3.org/2000/svg" xmlns:xlink="http://www.w3.org/1999/xlink" width="222" height="160" fill="none"><style>.B{fill-rule:evenodd}.C{stroke-linejoin:round}.D{stroke-width:3.969}.E{stroke:#e4e4e4}.F{stroke-linecap:round}.G{fill:#f4f4f4}.H{fill:#fff}.I{fill:#e4e4e4}.J{stroke:#fff}.K{stroke-width:1.43}.L{stroke-width:1.799}</style><path d="M162.233 107.027c-3.48 2.425-3.54 10.758-.186 25.002l6.085 25.448h-11.798m28.706-50.45c-3.48 2.425-3.54 10.758-.185 25.002l6.084 25.448h-11.8M106.67 84.68l9.015 41.272-8.722 31.524h9.618m12.6-73.916l9.015 41.908-8.722 32h9.618" class="C D E F"/><path d="M109.984 11.196h-.39c-.28.055-.505.055-.73.17-.448.112-.784.335-1.12.672a4.05 4.05 0 00-.727 1.287l-.17.84v.448c0 .17 0 .28.057.448.055.56.28 1.008.503 1.29s.617.56 1.12.67c.28.057.617.112.953.112.28 0 .56 0 .84-.055 1.29-.167 2.688-.727 3.92-1.343.112-.057.224-.113.28-.17-.17-.84-.448-1.68-.785-2.352-.447-.84-1.008-1.4-1.79-1.735-.393-.17-.896-.28-1.513-.28h-.448zm1.29-7.504l-1.232.055-.73.112h-.167c-.393.057-.73.113-1.065.225-.727.167-1.454.448-2.07.727-1.51.672-2.8 1.792-3.75 3.136-.84 1.232-1.456 2.688-1.682 4.255-.1.73-.167 1.457-.1 2.185v.057l.055.39c0 .17.055.28.055.39v.17l.226 1.063c.28 1.12.95 2.8 2.35 4.2 1.177 1.12 2.8 1.904 4.48 2.128.393.057.84.057 1.232.057.84 0 1.68-.113 2.576-.337.448-.11.84-.223 1.288-.39 0 .224-.795 2.95-.795 3.172 0 .17-.056.224-.056.28s-.056.167-.056.223c-.28 3.305 2.07 6.16 5.32 6.497.224 0 .393.055.615.055 3.024 0 6.285-4.74 6.62-7.708 0-.112.056-.503.056-.95 0-.672 0-1.344-.056-2.07-.057-1.12-.112-2.185-.28-3.193-.112-.84-.28-1.96-.616-3.303a76.053 76.053 0 002.07-2.016c1.12-1.12 1.68-1.792 1.737-1.792 1.063-1.175 1.063-2.912 0-4.033-.56-.615-1.344-.95-2.24-.95-.73 0-1.456.28-2.016.785 0 0-.616.56-1.736 1.51-.168.112-.28.28-.504.393-.056-.057-.056-.112-.112-.17a11.86 11.86 0 00-2.744-2.8 10.573 10.573 0 00-3.92-1.847c-.84-.393-1.792-.505-2.743-.505z" class="B G"/><path d="M109.593 11.196v-1.25c-.08 0-.162.008-.242.024l.242 1.226zm-.73.17l.304 1.213c.1-.023.177-.055.26-.097l-.564-1.116zm-1.12.672l-.885-.882-.074.08.96.8zm-.727 1.287l-1.186-.393c-.016.048-.03.096-.04.145l1.225.248zm-.17.84l-1.225-.248a1.29 1.29 0 00-.025.248h1.25zm.057.896l1.244-.123a1.2 1.2 0 00-.06-.277l-1.184.4zm.503 1.29l-.976.78.001.002.975-.782zm1.12.67l-.268 1.22.02.005.247-1.225zm1.792.057l-.16-1.24-.082.014.243 1.226zm3.92-1.343l.56 1.118.005-.003-.564-1.116zm.28-.17l.874.894a1.25 1.25 0 00.352-1.139l-1.226.246zm-.785-2.352l1.117-.56-.013-.026-1.104.587zm-1.79-1.735l-.493 1.15.002.001.49-1.15zm-1.904-7.73l-.175-1.238h-.003l.178 1.237zm-.73.112V5.1a1.24 1.24 0 00.242-.024l-.242-1.226zm-.167 0V2.6a1.24 1.24 0 00-.178.013l.178 1.237zm-1.065.225l.28 1.218.115-.032-.396-1.186zm-2.07.727l.508 1.142.008-.004-.516-1.14zm-3.75 3.136l-1.02-.722-.012.018 1.033.705zm-1.682 4.255l1.236.188.002-.01-1.238-.178zm-.1 2.185h1.25l-.004-.097-1.246.097zm0 .057h-1.25c0 .06.004.117.012.175l1.238-.175zm.055.39h1.25a1.28 1.28 0 00-.012-.175l-1.238.175zm.055.56h-1.25a1.25 1.25 0 00.025.247l1.225-.247zm.226 1.063l1.213-.302-.013-.045-1.2.347zm2.35 4.2l-.883.884.022.02.86-.905zm4.48 2.128l.18-1.237h-.013l-.166 1.24zm3.808-.28l-.3-1.213h-.003l.303 1.213zm1.288-.39h1.25a1.25 1.25 0 00-1.692-1.169l.442 1.17zm-.907 3.675l1.245.105.005-.105h-1.25zm5.32 6.497l-.13 1.243a1.24 1.24 0 00.129.007v-1.25zm7.236-7.653l1.242.14a1.32 1.32 0 00.008-.141h-1.25zm0-3.023l-1.25.063.003.034 1.246-.097zm-.28-3.193l-1.24.165.006.04 1.233-.205zm-.616-3.303l-.853-.914a1.25 1.25 0 00-.36 1.217l1.213-.303zm2.07-2.016l-.883-.884-.002.001.885.883zm1.737-1.792v1.25a1.25 1.25 0 00.927-.411l-.927-.84zm0-4.033l-.925.84.018.02.907-.86zm-4.256-.166l-.837-.93-.005.004.842.925zm-1.736 1.51l.692 1.04a1.32 1.32 0 00.118-.089l-.8-.953zm-.504.393l-.894.874a1.25 1.25 0 001.453.244l-.56-1.118zm-.112-.17l-1.024.717a1.16 1.16 0 00.14.167l.884-.884zm-2.744-2.8l-.75 1 .018.013.73-1.014zm-3.92-1.847l-.53 1.132a1.3 1.3 0 00.248.086l.28-1.218zm-4.032 5.75h-.39v2.5h.39v-2.5zm-.633.024l-.143.024-.218.034a2.43 2.43 0 00-.689.221l1.127 2.23c-.043.022-.065.02-.003.01l.152-.023.258-.044-.484-2.453zm-.8.182c-.723.18-1.25.55-1.702 1.002l1.77 1.765c.22-.222.365-.298.538-.342l-.607-2.425zm-1.776 1.084a5.273 5.273 0 00-.954 1.695l2.372.787c.11-.328.3-.64.5-.88l-1.92-1.602zm-.993 1.84l-.17.84 2.45.496.084-.423.084-.417-2.45-.496zm-.194 1.088v.224h2.5v-.224h-2.5zm0 .224v.224h2.5v-.224h-2.5zm0 .224c0 .18-.005.47.123.85l2.368-.8c.008.03.01.043.01.05v-.045l-.001-.054h-2.5zm.063.57c.08.818.408 1.49.77 1.945l1.953-1.56a1.25 1.25 0 01-.236-.632l-2.488.246zm.772 1.947a3.194 3.194 0 001.827 1.1l.537-2.442c-.102-.022-.193-.062-.268-.11s-.125-.097-.145-.122l-1.95 1.564zm1.848 1.114c.306.062.74.137 1.2.137v-2.5c-.21 0-.45-.036-.705-.087l-.495 2.45zm1.2.137c.26 0 .663.004 1.083-.08l-.487-2.452c-.14.028-.297.03-.596.03v2.5zm1-.066c1.496-.194 3.043-.827 4.318-1.464l-1.117-2.236c-1.19.594-2.44 1.08-3.523 1.22l.322 2.48zm4.323-1.467l.22-.116c.068-.04.225-.13.37-.274l-1.748-1.787a.925.925 0 01.07-.062l.04-.03.022-.014-.034.018-.07.036 1.127 2.23zm.943-1.53c-.188-.934-.5-1.88-.894-2.667l-2.234 1.12c.28.56.527 1.3.676 2.037l2.452-.492zm-.907-2.693c-.555-1.044-1.312-1.83-2.403-2.298l-.983 2.3c.473.203.84.535 1.178 1.173l2.208-1.173zm-2.402-2.297c-.564-.242-1.238-.382-2.006-.382v2.5c.466 0 .8.084 1.02.18l.986-2.297zm-2.006-.382h-.055v2.5h.055v-2.5zm-.055 0h-.393v2.5h.393v-2.5zm.896-7.504c-.372 0-.912-.002-1.407.068l.35 2.475c.288-.04.644-.043 1.057-.043v-2.5zm-1.4.068l-.793.123.484 2.453.665-.1-.356-2.474zm-.55.1h-.167v2.5h.167V2.6zm-.345.013c-.4.058-.832.127-1.282.277l.79 2.372c.22-.074.462-.118.847-.174l-.356-2.474zm-1.167.244c-.838.193-1.648.508-2.307.807l1.032 2.277c.574-.26 1.22-.506 1.836-.648l-.56-2.436zm-2.3.803c-1.74.773-3.197 2.05-4.264 3.556l2.04 1.444c.836-1.182 1.955-2.145 3.24-2.716L105.5 3.67zm-4.276 3.574c-.937 1.373-1.63 3.007-1.886 4.78l2.475.356c.195-1.36.732-2.637 1.476-3.728l-2.065-1.41zm-1.884 4.77c-.12.785-.188 1.615-.12 2.47l2.493-.194c-.047-.6-.002-1.228.1-1.9l-2.47-.376zm-.125 2.373v.057h2.5v-.057h-2.5zm.012.232l.055.39 2.476-.35-.056-.39-2.475.35zm.043.216a2.21 2.21 0 00.057.486l.01.044a.85.85 0 01-.01-.138h2.5a1.77 1.77 0 00-.028-.307l-.03-.136c-.01-.042.002-.004.002.05h-2.5zm.055.39v.112h2.5v-.112h-2.5zm0 .112v.057h2.5v-.057h-2.5zm.025.304l.25 1.164 2.4-.695c-.094-.327-.124-.586-.2-.963l-2.45.494zm.238 1.118c.316 1.27 1.074 3.177 2.68 4.782l1.767-1.768c-1.193-1.194-1.78-2.646-2.02-3.62l-2.426.604zm2.702 4.804c1.37 1.304 3.237 2.203 5.176 2.462l.33-2.478c-1.42-.19-2.8-.858-3.784-1.794l-1.723 1.81zm5.163 2.46c.498.072 1.038.07 1.4.07v-2.5c-.413 0-.766-.002-1.053-.044l-.357 2.474zm1.4.07c.956 0 1.9-.13 2.88-.375l-.607-2.425a9.26 9.26 0 01-2.273.3v2.5zm2.876-.374c.478-.118.92-.244 1.43-.435l-.883-2.34a9.54 9.54 0 01-1.146.347l.6 2.427zm-.262-1.605c0-.11.017-.187.01-.152l-.015.068-.08.332-.547 2.055-.098.402-.036.174c-.006.028-.03.153-.03.292h2.5c0 .11-.018.188-.01.152l.014-.068.082-.332.546-2.055.1-.403.036-.175c.005-.03.03-.153.03-.292h-2.5zm-.795 3.172a.59.59 0 01.01-.108.66.66 0 01.025-.102.55.55 0 00-.019.055 1.36 1.36 0 00-.072.434h2.5c0 .186-.046.322-.054.346l-.003.01a1.91 1.91 0 00.085-.315 1.86 1.86 0 00.028-.322h-2.5zm-.056.28c0-.093.012-.165.018-.202a.72.72 0 01.019-.082l.006-.02-.02.06-.024.08-.032.136a1.36 1.36 0 00-.022.248h2.5c0 .093-.012.165-.018.2a.72.72 0 01-.019.082l-.006.02.02-.06.024-.08.032-.136c.01-.053.022-.14.022-.248h-2.5zm-.052.117c-.336 3.973 2.5 7.437 6.436 7.846l.258-2.487c-2.56-.266-4.426-2.512-4.203-5.15l-2.49-.21zm6.565 7.852a1.06 1.06 0 01.133.015c.09.013.27.04.482.04v-2.5c-.01 0-.027-.001-.132-.015-.092-.013-.27-.04-.483-.04v2.5zm.615.055c1.082 0 2.092-.42 2.957-.997s1.664-1.364 2.34-2.217c1.33-1.677 2.363-3.82 2.565-5.604l-2.484-.28c-.134 1.183-.9 2.896-2.04 4.33-.56.704-1.168 1.3-1.77 1.69s-1.14.577-1.57.577v2.5zm7.87-8.958c0 .04-.003.053.004-.022l.02-.223c.015-.184.032-.433.032-.707h-2.5c0 .174-.01.345-.024.497l-.018.21c-.004.044-.014.15-.014.244h2.5zm.056-.95c0-.667.001-1.386-.06-2.168l-2.492.194c.052.672.052 1.297.052 1.974h2.5zm-.058-2.135c-.056-1.107-.113-2.244-.295-3.334l-2.466.4c.154.925.207 1.918.264 3.05l2.497-.126zm-.29-3.295c-.115-.86-.3-2.034-.643-3.44l-2.425.607c.32 1.278.48 2.348.6 3.165l2.478-.33zm-1.002-2.225a80.35 80.35 0 002.103-2.047l-1.77-1.766a76.568 76.568 0 01-2.04 1.985l1.706 1.827zm2.102-2.045c.575-.575 1.007-1.036 1.3-1.348l.316-.337.03-.032a.84.84 0 01-.091.072 1.246 1.246 0 01-.701.217v-2.5c-.28 0-.486.095-.548.125a1.32 1.32 0 00-.186.109c-.07.05-.122.096-.148.12-.056.05-.112.107-.154.15l-.347.37a48.71 48.71 0 01-1.237 1.284l1.767 1.77zm1.78-1.838c1.483-1.64 1.51-4.117-.02-5.732l-1.814 1.72c.595.628.623 1.624-.02 2.334l1.854 1.677zm-.003-5.713c-.813-.894-1.942-1.36-3.164-1.36v2.5c.57 0 1.01.206 1.315.543l1.85-1.683zm-3.164-1.36c-1.045 0-2.07.4-2.853 1.107l1.674 1.857a1.786 1.786 0 011.18-.464v-2.5zm-2.016 2.035l-.84-.925-.026.023-.08.073-.326.3-1.27 1.098 1.62 1.905 1.304-1.127.342-.303.09-.08.023-.02c.01-.008.01-.008-.832-.933zm-2.427.47a2.37 2.37 0 00-.255.197 3.97 3.97 0 00-.077.07l-.05.046c-.05.045-.032.024.01.003l1.118 2.236c.266-.133.45-.295.555-.4l.1-.09c.016-.014.007-.004-.017.01l-1.383-2.082zm1.08.56c.124.127.185.262.17.23-.005-.01-.037-.076-.082-.148a1.55 1.55 0 00-.208-.261l-1.768 1.768a1.05 1.05 0 01-.141-.176c-.028-.045-.046-.083-.037-.064l.024.046a1.39 1.39 0 00.053.094 1.5 1.5 0 00.203.259l1.787-1.748zm.02-.01a13.117 13.117 0 00-3.036-3.097l-1.463 2.027a10.596 10.596 0 012.45 2.503l2.048-1.434zm-3.018-3.083c-1.243-.932-2.744-1.686-4.39-2.065l-.562 2.436c1.268.293 2.455.883 3.452 1.63l1.5-2zm-4.14-1.98c-1.078-.504-2.24-.622-3.273-.622v2.5c.87 0 1.613.106 2.214.387l1.06-2.265z" class="I"/><path d="M113.095 24.112a1.25 1.25 0 102.338.886l-2.338-.886zm.614-14.187l.662-1.06h-.001l-.66 1.06zM111.285 7.8a1.25 1.25 0 100 2.5V7.8zm-8.004 11.774a1.25 1.25 0 001.927-1.593l-1.927 1.593zm.7-9.33l1.006.742-1.006-.742zm2.91-1.108a1.25 1.25 0 10-1.118-2.236l1.118 2.236zm8.54 15.863c1.765-4.66 2.37-8.114 2.103-10.7-.276-2.67-1.486-4.386-3.165-5.434l-1.323 2.12c.997.622 1.8 1.635 2.002 3.57.21 2.02-.246 5.045-1.955 9.556l2.338.886zM114.37 8.863a7.56 7.56 0 00-2.64-1.015 2.96 2.96 0 00-.445-.049v2.5c-.082 0-.134-.01-.082-.003a4.449 4.449 0 01.528.113 5.11 5.11 0 011.317.576l1.322-2.122zm-9.162 9.117c-.865-1.046-1.236-2.37-1.22-3.686.018-1.33.432-2.542.998-3.3L102.975 9.5c-.92 1.248-1.462 2.987-1.485 4.76-.024 1.8.48 3.725 1.79 5.31l1.927-1.593zm-.22-6.996c.582-.79 1.29-1.544 1.905-1.85L105.774 6.9c-1.178.59-2.182 1.766-2.8 2.602l2.012 1.484z" class="H"/><use xlink:href="#M" class="B G"/><g class="C"><use xlink:href="#M" class="D E"/><g class="F J"><path d="M98.523 82.797c-9.26 0-16.83-11.375-16.83-25.95s8.058-26.908 17.317-26.908c1.893 0 3.786.484 5.525 1.505" stroke-width="3.718"/><path d="M117.868 83.693c-2.855 0-5.655-1.007-8.23-2.967l-1.344-1.008" class="K"/><path d="M143.6 80.342c-1.93 1.115-3.987 1.73-6.17 1.788s-4.268-.447-6.313-1.514M130.75 31.7a12.44 12.44 0 016.384-1.737 12.66 12.66 0 013.863.617" class="D"/><path d="M108.293 32.68l1.344-1.008c2.576-1.96 5.376-2.967 8.23-2.967" class="K"/></g></g><path d="M103.98 34.695c3.584-5.097 8.4-8.23 13.776-8.23 5.486 0 10.47 3.303 14.055 8.735" class="B G"/><path d="M103.98 34.695c3.584-5.097 8.4-8.23 13.776-8.23 5.486 0 10.47 3.303 14.055 8.735" class="C D E"/><use xlink:href="#N" class="B G"/><g class="C D E"><use xlink:href="#N"/><path d="M46.64 123.96v33.516h-5.975m23.485-39.383l-.106 39.385h5.974" class="F"/></g><mask id="A" maskUnits="userSpaceOnUse" x="72" y="117" width="3" height="3"><path d="M72.153 118.74c0 .674.56 1.235 1.234 1.235s1.234-.56 1.234-1.235-.56-1.178-1.234-1.235c-.674 0-1.234.56-1.234 1.235z" class="B H"/></mask><g mask="url(#A)" class="B"><path d="M66.315 125.812h14.143V111.67H66.315v14.143z" fill="#a9a092"/></g><mask id="B" maskUnits="userSpaceOnUse" x="22" y="125" width="9" height="9"><path d="M23.042 125.98c-.785.73-.842 1.91-.11 2.696l4.153 4.094c.73.787 1.963.787 2.75.114.785-.73.842-1.91.112-2.694l-4.153-4.096a1.91 1.91 0 00-1.412-.606 2.07 2.07 0 00-1.339.492z" class="B H"/></mask><g mask="url(#B)" class="B"><path d="M16.58 139.212h19.717v-19.56H16.58v19.56z" fill="#766a5a"/></g><path d="M29.947 130.19a1.88 1.88 0 01-.112 2.694c-.787.673-2.02.673-2.75-.112l-4.153-4.096c-.73-.786-.674-1.965.112-2.695.785-.673 2.02-.673 2.75.113l4.154 4.096z" stroke="#585857" stroke-width="1.924" class="C"/><mask id="C" maskUnits="userSpaceOnUse" x="75" y="89" width="16" height="33"><path d="M78.438 90.678l.618 21.216c.112 3.142-1.236 5.668-3.255 6.958l5.444 1.964c3.142 1.18 6.175-.84 6.79-4.545l2.582-15.322c.56-3.648-1.46-7.465-4.603-8.588l-7.69-2.805.112 1.123z" class="B H"/></mask><g mask="url(#C)" class="B I"><path d="M69.963 127h26.585V83.72H69.963V127z"/></g><use xlink:href="#O" class="B G"/><g class="C D"><use xlink:href="#O" class="E"/><path d="M81.694 94.213l3.142 1.18c1.684.618 2.523 3.617 2.186 5.807" class="F J"/></g><mask id="D" maskUnits="userSpaceOnUse" x="59" y="80" width="21" height="40"><path d="M59.356 80.463a11.62 11.62 0 012.3 4.546l6.062 20.88 1.458 5.106a12.77 12.77 0 01.449 4.996c-.11 1.235-.45 2.358-.897 3.368l3.367.28c1.347.112 2.638-.224 3.648-.898 2.076-1.178 3.424-3.76 3.312-6.902l-.618-21.216c0-.394-.055-.73-.112-1.123-.618-4.21-3.648-7.745-7.353-8.08l-10.944-.955h-.673z" class="B H"/></mask><g mask="url(#D)" class="B I"><path d="M53.52 125.495H84.9v-50.87H53.52v50.87z"/></g><use xlink:href="#P" class="B G"/><g class="C D"><use xlink:href="#P" class="E"/><path d="M63.726 83.693l6.91.98c2.076.17 4.097 2.638 4.546 5.388.055.224.055.56.055.785" class="F J"/></g><mask id="E" maskUnits="userSpaceOnUse" x="33" y="76" width="37" height="52"><path d="M50.207 76.983l-10.662 3.142c-3.37.955-5.558 4.154-5.95 8.026-.17 1.573-.057 3.312.448 4.94l5.837 20.092 1.684 5.948c.56 1.853 1.46 3.48 2.58 4.77.73.842 1.516 1.57 2.47 2.134 2.02 1.3 4.32 1.796 6.623 1.122l10.663-3.143c2.245-.674 3.985-2.302 4.996-4.545.505-1.067.785-2.19.898-3.368.055-1.683-.057-3.368-.562-5.11l-1.46-5.106-6.062-20.88c-.503-1.684-1.345-3.255-2.3-4.546-1.872-2.362-4.524-3.77-7.168-3.77a7.24 7.24 0 00-2.037.29z" class="B H"/></mask><g mask="url(#E)" class="B I"><path d="M27.685 133.294h47.96V70.857h-47.96v62.437z"/></g><use xlink:href="#Q" class="B G"/><use xlink:href="#Q" class="C D E"/><mask id="F" maskUnits="userSpaceOnUse" x="13" y="119" width="17" height="33"><path d="M15.803 121.098l-.505.954-.506 1.3-.73 2.245-.28 1.347-.448 2.582c-.113 1.066-.113 2.02-.113 2.862v.898l.225 2.863c.112.897.28 1.796.505 2.526l.45 1.46c.17.674.448 1.402.73 2.133l.448.953.563 1.18a23.01 23.01 0 001.178 2.076l.56.843 1.066 1.347c1.797 2.245 4.38 3.03 6.512 1.964.39-.167.673-.392.953-.618 2.02-1.683 2.638-5.05 1.404-8.026l-.394-.898-.112-.448c-.057-.112-.057-.224-.112-.45l-.17-1.236v-1.346l.057-.448c0-.114.055-.282.112-.45 0-.056.055-.168.055-.225s.057-.167.057-.223c.057-.113.057-.225.112-.28l.17-.394c.057-.054.057-.168.113-.224s.055-.112.112-.17.112-.17.17-.224l.393-.39.17-.114.055-.055.73-.394-.56-.56L18.44 121.94c-.673-.787-1.235-1.627-1.57-2.64l-1.067 1.797z" class="B H"/></mask><g mask="url(#F)" class="B I"><path d="M7.384 156.927h27.78v-43.462H7.384v43.462z"/></g><use xlink:href="#R" class="B G"/><g class="C D"><use xlink:href="#R" class="E"/><path d="M24.278 147.7c-.112.057-.17.113-.28.17-.055 0-.112.056-.17.056-.73.168-1.627-.225-2.357-1.178l-.954-1.235-.45-.73a7.88 7.88 0 01-.954-1.796l-.56-1.122-.394-.9c-.28-.673-.505-1.29-.673-1.908l-.393-1.346-.45-2.134v-.11l-.224-2.582v-.787l.112-2.47v-.1c.057-.787.17-1.46.393-2.133l.28-1.29c.057-.17.113-.45.17-.675" class="F J"/></g><mask id="G" maskUnits="userSpaceOnUse" x="88" y="97" width="17" height="33"><path d="M90.56 101.005l-2.302 15.49-.17.784.786-.055h.337l.505.112c.112.056.17.056.28.112s.17.056.224.113.17.056.225.112l.28.168c.112.057.17.168.28.224.057 0 .112.057.17.112l.17.17.282.28.224.28c.055.112.11.17.167.28.057.056.112.168.17.225.057.167.113.28.17.393s.057.168.113.224l.503 1.18c.057.224.057.336.113.45l.112.448.17.954c.56 3.2 2.862 5.67 5.5 6.06a4.09 4.09 0 001.179 0c2.356-.336 4.152-2.413 4.433-5.22l.168-1.683v-1.067l-.113-2.357-.112-1.29-.167-1.066-.563-2.188-.448-1.46c-.225-.73-.45-1.516-.898-2.36-.45-1.008-.9-1.85-1.347-2.58l-.505-.785a13.8 13.8 0 00-1.627-2.358 15.268 15.268 0 00-1.684-1.963l-.955-.954-1.85-1.515-1.122-.787-.898-.56a19.74 19.74 0 00-1.852-.954c.17.954.225 1.964.057 3.03z" class="B H"/></mask><g mask="url(#G)" class="B I"><path d="M82.255 135.002h28.23V92.138h-28.23v42.864z"/></g><use xlink:href="#S" class="B G"/><g class="C D"><use xlink:href="#S" class="E"/><path d="M92.843 103.058c.17.17.918.865 1.085.977l.898.843c.505.505.954 1.066 1.458 1.627l.057.112c.56.672 1.066 1.404 1.46 2.077l.45.673c.28.618.785 1.348 1.122 2.188l.055.114.787 2.02.448 1.402.45 1.796.17 1.068.112 1.234.113 2.077v.842l-.113 1.515c-.112 1.18-.674 2.076-1.347 2.245-.056 0-.112.055-.17.055h-.393" class="F J"/></g><mask id="H" maskUnits="userSpaceOnUse" x="16" y="105" width="25" height="31"><path d="M17.655 112.23c-1.46 1.908-1.684 4.714-.785 7.07.39.955.84 1.852 1.57 2.64l10.383 11.56.562.562c2.47 2.134 5.668 2.077 7.577-.393l3.48-4.547c-2.3 0-4.602-1.29-6.173-3.59-.113-.167-.225-.393-.394-.56l-6.23-10.44-4.603-7.745c-.167-.28-.28-.616-.505-.897l-4.882 6.342z" class="B H"/></mask><g mask="url(#H)" class="B I"><path d="M10.5 141.43h35.777v-41.38H10.5v41.38z"/></g><use xlink:href="#T" class="B G"/><g class="C D"><use xlink:href="#T" class="E"/><path d="M35.166 130.807l-.785.954c-.225.28-.506.506-.787.616-.617.17-1.346-.055-2.02-.673-.113-.11-.225-.167-.28-.28L20.9 119.862c-.448-.448-.73-.954-.954-1.57-.56-1.458-.45-3.143.28-4.097l1.964-2.526" class="F J"/></g><mask id="I" maskUnits="userSpaceOnUse" x="21" y="88" width="26" height="42"><path d="M33.2 88.377L24.447 95c-2.92 2.245-3.65 6.904-1.852 10.832.112.28.28.617.505.9l4.603 7.745 6.228 10.438c.113.17.225.394.394.56 1.572 2.302 3.93 3.592 6.23 3.592 1.233 0 2.47-.4 3.478-1.233l2.526-1.965c-1.01-.45-1.796-1.18-2.526-1.965-1.12-1.29-2.02-2.918-2.58-4.77l-1.684-5.948-5.84-20.093a12.55 12.55 0 01-.448-4.939c-.112.057-.224.113-.28.225z" class="B H"/></mask><g mask="url(#I)" class="B I"><path d="M15.783 134.905h36.613v-52.6H15.783v52.6z"/></g><use xlink:href="#U" class="B G"/><g class="C D"><use xlink:href="#U" class="E"/><path d="M41.396 125.755c-.112.057-.17.057-.28.114-.225.055-.45.112-.673.112-1.236 0-2.582-.842-3.536-2.2l-.113-.167c-.055-.057-.112-.112-.167-.226l-10.832-18.183a2.402 2.402 0 01-.28-.674c-1.236-2.583-.787-5.726.842-7.016l4.433-3.424" class="F J"/></g><path d="M46.1 91.48a2.686 2.686 0 01-1.74 3.366 2.69 2.69 0 01-3.366-1.74m11.674-3.79a2.69 2.69 0 003.117 2.156 2.69 2.69 0 002.156-3.117m-7.84 24.847c-1.008-3.148.756-6.547 3.904-7.555s6.55.755 7.556 3.904m59.317-65.13a2.69 2.69 0 01-2.958 2.368 2.69 2.69 0 01-2.37-2.958m12.198 1.282a2.69 2.69 0 001.97 3.238 2.69 2.69 0 003.239-1.97m-17.272 19.51c.36-3.286 3.354-5.674 6.64-5.314a6.04 6.04 0 015.315 6.64" stroke="#d8d8d8" class="L C F"/><mask id="J" maskUnits="userSpaceOnUse" x="162" y="61" width="49" height="55"><path d="M163.404 64.507c-1.165 2.598.044 5.643 2.643 6.81 16.8 7.392 29.522 22.354 34.046 40.05.583 2.33 2.688 3.898 5.018 3.898a4.58 4.58 0 001.299-.179c2.778-.717 4.435-3.54 3.718-6.272-5.33-20.742-20.25-38.302-39.915-46.95a5.078 5.078 0 00-2.072-.444 5.211 5.211 0 00-4.737 3.088z" class="B H"/></mask><g mask="url(#J)" class="B"><path d="M157.122 121.1h59V55.583h-59V121.1z" fill="#c5c5c5"/></g><use xlink:href="#V" class="B G"/><use xlink:href="#V" stroke-width="3.75" class="C E"/><mask id="K" maskUnits="userSpaceOnUse" x="146" y="71" width="55" height="53"><path d="M146.872 115.13a5.714 5.714 0 00-.626 2.598c0 3.18 2.598 5.778 5.778 5.778.494 0 .986-.1 1.434-.178l46.68-11.962c-4.526-17.695-17.247-32.657-34.047-40.05l-19.22 43.813z" class="B H"/></mask><g mask="url(#K)" class="B I"><path d="M140.4 129.343h65.565V65.48H140.4v63.864z"/></g><use xlink:href="#W" class="B G"/><g class="C D"><use xlink:href="#W" class="E"/><path d="M155 119.82l-1.254.314a3.101 3.101 0 01-.85.134c-1.972 0-3.5-1.327-3.5-3.297 0-.538.134-1.075.402-1.614l.896-2.016 16.764-37.1" class="F J"/></g><path d="M166.775 89.23a2.69 2.69 0 001.74 3.367 2.686 2.686 0 003.366-1.74m6.567 3.61a2.69 2.69 0 001.74 3.367 2.69 2.69 0 003.367-1.739m-14.36 17.246c1.007-3.15-.756-6.548-3.904-7.556s-6.55.756-7.556 3.904" stroke="#d8d8d8" class="L C F"/><use xlink:href="#X" class="B H"/><g class="C"><use xlink:href="#X" class="D E"/><g class="F J"><path d="M166.13 65.765c.448-1.075 1.387-1.382 2.553-1.382.402 0 .806.1 1.164.27 18.287 8.047 31.343 24.177 36.99 43.25" stroke-width="2.5"/><path d="M52.102 123.533c-1.537.438-2.908-.1-3.84-.713-.603-.385-1.207-.878-1.646-1.482-.823-1.043-1.482-2.194-1.92-3.512l-7.408-25.46a9.386 9.386 0 01-.384-3.678c.276-2.633 1.6-4.608 3.513-5.157l10.423-3.07m58.196-46.1c1.6-1.707 3.467-2.857 5.6-3.504a12.646 12.646 0 013.877-.524m-9.32 47.952c1.6 1.7 3.5 2.82 5.65 3.44 1.3.374 2.6.516 3.883.482" class="D"/></g></g><defs><path id="S" d="M90.56 101.005c.17-1.067.112-2.076-.055-3.03a19.81 19.81 0 011.851.955l.898.56 1.123.786 1.852 1.515.954.953c.56.562 1.123 1.18 1.684 1.965a13.78 13.78 0 011.628 2.358l.505.784a22.14 22.14 0 011.348 2.582c.448.843.673 1.628.897 2.358l.45 1.46.56 2.188.17 1.066.112 1.29c.112.843.112 1.684.112 2.357v1.067l-.17 1.683c-.28 2.807-2.076 4.883-4.433 5.22a4.16 4.16 0 01-1.179 0c-2.638-.394-4.94-2.862-5.5-6.062l-.167-.954-.113-.45c-.055-.113-.055-.224-.112-.45l-.505-1.18c-.057-.056-.057-.112-.113-.224s-.112-.224-.167-.393c-.057-.057-.113-.17-.17-.225-.057-.11-.112-.168-.17-.28l-.224-.28-.28-.28-.17-.17c-.057-.055-.112-.112-.17-.112-.112-.056-.17-.167-.28-.224l-.28-.168c-.057-.057-.17-.057-.224-.112s-.113-.057-.225-.114-.17-.055-.28-.1l-.505-.112h-.337l-.785.055.167-.785 2.302-15.49z"/><path id="M" d="M137.076 26.463c-3.472 0-6.72 1.232-9.576 3.415-2.856-2.183-6.104-3.415-9.576-3.415s-6.72 1.232-9.576 3.415c-2.855-2.183-6.103-3.415-9.575-3.415-11.367 0-20.607 13.328-20.607 29.735s9.24 29.734 20.607 29.734c3.472 0 6.72-1.232 9.575-3.415 2.856 2.183 6.105 3.415 9.576 3.415s6.72-1.232 9.576-3.415c2.856 2.183 6.104 3.415 9.576 3.415 11.367 0 20.606-13.327 20.606-29.734s-8.91-29.735-20.606-29.735z"/><path id="O" d="M86.015 92.36l-7.7-2.805.113 1.123.617 21.215c.113 3.142-1.235 5.67-3.255 6.96l5.445 1.964c3.142 1.18 6.174-.84 6.79-4.545l2.58-15.322c.56-3.648-1.46-7.466-4.602-8.588z"/><path id="P" d="M79.055 111.837l-.617-21.215c0-.394-.057-.73-.113-1.123-.617-4.21-3.648-7.745-7.35-8.082l-10.945-.954h-.673a11.637 11.637 0 012.302 4.545l6.06 20.88 1.46 5.106c.506 1.685.618 3.425.45 4.996a10.635 10.635 0 01-.898 3.367l3.37.282c1.346.112 2.638-.225 3.648-.9 2.076-1.178 3.423-3.758 3.31-6.902z"/><path id="Q" d="M69.234 110.994l-1.46-5.106-6.062-20.88c-.505-1.684-1.346-3.255-2.3-4.546-2.358-2.975-5.95-4.433-9.205-3.48l-10.663 3.143c-3.367.954-5.557 4.153-5.95 8.025-.17 1.573-.055 3.312.45 4.94l5.836 20.093 1.685 5.948c.56 1.853 1.46 3.48 2.58 4.77.73.843 1.515 1.573 2.47 2.134 2.02 1.29 4.32 1.796 6.622 1.122l10.663-3.143c2.246-.674 3.985-2.302 4.996-4.546.506-1.066.787-2.2.898-3.368.055-1.684-.057-3.367-.56-5.108z"/><path id="R" d="M18.44 121.94c-.673-.786-1.235-1.627-1.572-2.638l-1.066 1.796-.505.954-.506 1.29-.73 2.245-.28 1.348-.448 2.58c-.113 1.066-.113 2.02-.113 2.86v.9l.225 2.862c.112.898.28 1.795.505 2.525l.45 1.46c.17.674.45 1.404.73 2.134l.448.954.56 1.178c.394.786.786 1.46 1.18 2.077l.56.84 1.067 1.347c1.796 2.245 4.377 3.032 6.5 1.966.394-.17.674-.394.955-.618 2.02-1.684 2.637-5.052 1.403-8.027l-.394-.897-.112-.448c-.055-.113-.055-.225-.112-.45l-.17-1.234v-1.347l.057-.45c0-.112.055-.28.112-.45 0-.057.057-.17.057-.224s.055-.17.055-.225c.057-.112.057-.224.112-.28l.17-.393c.057-.056.057-.168.112-.225s.057-.11.113-.167.112-.17.167-.225l.394-.392.167-.113.057-.055.73-.393-.56-.56L18.44 121.94z"/><path id="N" d="M131.812 77.646c-3.584 5.095-8.4 8.23-13.776 8.23-5.487 0-10.472-3.303-14.056-8.736"/><path id="T" d="M34.268 125.532c-.112-.17-.225-.393-.393-.562l-6.23-10.44-4.602-7.745c-.17-.28-.28-.617-.506-.9l-4.882 6.343c-1.46 1.907-1.684 4.713-.787 7.072.394.953.842 1.85 1.572 2.637L28.824 133.5l.56.56c2.47 2.133 5.668 2.076 7.577-.394l3.48-4.545c-2.3 0-4.602-1.29-6.173-3.59z"/><path id="U" d="M44.034 123.903c-1.123-1.29-2.02-2.918-2.582-4.77l-1.684-5.95L33.93 93.09a12.518 12.518 0 01-.45-4.94c-.112.057-.224.113-.28.225L24.446 95c-2.918 2.245-3.648 6.903-1.852 10.83.112.282.28.618.506.9l4.602 7.745 6.23 10.44c.112.168.224.393.393.56 1.572 2.3 3.93 3.59 6.23 3.59 1.234 0 2.47-.39 3.48-1.234l2.526-1.963c-1-.45-1.796-1.18-2.526-1.966z"/><path id="V" d="M210.128 108.812c-5.33-20.742-20.25-38.302-39.915-46.95-2.598-1.164-5.644.046-6.81 2.644s.045 5.644 2.643 6.81c16.798 7.392 29.52 22.355 34.046 40.05.583 2.33 2.688 3.896 5.017 3.896.404 0 .852-.044 1.3-.178 2.778-.716 4.435-3.54 3.718-6.272z"/><path id="W" d="M200.138 111.366c-4.524-17.696-17.247-32.66-34.047-40.05l-19.218 43.813a5.71 5.71 0 00-.628 2.599c0 3.18 2.6 5.778 5.78 5.778.493 0 .986-.09 1.434-.178l46.68-11.96z"/><path id="X" d="M195.12 109.395a6.36 6.36 0 11-12.721-.001 6.36 6.36 0 0112.721.001z"/></defs></svg>