<svg width="160" height="160" xmlns="http://www.w3.org/2000/svg"><g fill="none" fill-rule="evenodd"><path d="M0 0h160v160H0z"/><path d="M126.373 49.12C141.71 68.328 160.038 86.266 160 104.982c-.077 18.716-18.597 38.17-39.954 47.835-21.396 9.665-45.629 9.543-67.14-.164-21.548-9.706-40.337-28.955-48.427-54.428-8.09-25.433-5.483-57.05 9.97-76.34C29.9 2.637 58.158-4.244 78.481 2.555c20.283 6.798 32.553 27.316 47.89 46.565z" fill="#E4E4E4"/><g><path d="M16 16h129v129H16z"/><path d="M79.848 34.015a5.809 5.809 0 00-5.4 3.668l-12.222 30.83H97.47l-12.223-30.83a5.809 5.809 0 00-5.4-3.668" fill="#F98258"/><path d="M79.848 34.015h0a5.809 5.809 0 00-5.4 3.668l-12.222 30.83H97.47l-12.223-30.83a5.809 5.809 0 00-5.4-3.668z" stroke="#585756" stroke-width="2.267" stroke-linecap="round" stroke-linejoin="round"/><path fill="#F98258" d="M53.69 90.047l-11.009 27.771h74.334l-11.009-27.77z"/><path stroke="#585756" stroke-width="2.267" stroke-linecap="round" stroke-linejoin="round" d="M53.69 90.047l-11.009 27.771h74.334l-11.009-27.77z"/><path fill="#F4D3C9" d="M97.47 68.514H62.226L53.69 90.047h52.316z"/><path stroke="#585756" stroke-width="2.267" stroke-linecap="round" stroke-linejoin="round" d="M97.47 68.514H62.226L53.69 90.047h52.316z"/><path stroke="#FFF" stroke-width="1.722" stroke-linecap="round" stroke-linejoin="round" d="M70.781 62.915l9.066-22.87M61.838 85.475l4.596-11.59M51.355 111.926l6.858-17.304"/><path d="M116.229 125.738H43.467c-5.198 0-9.453-4.254-9.453-9.452s4.255-9.452 9.453-9.452h72.762c5.198 0 9.452 4.254 9.452 9.452s-4.254 9.452-9.452 9.452" fill="#F98258"/><path d="M116.229 125.738H43.467c-5.198 0-9.453-4.254-9.453-9.452h0c0-5.198 4.255-9.452 9.453-9.452h72.762c5.198 0 9.452 4.254 9.452 9.452h0c0 5.198-4.254 9.452-9.452 9.452z" stroke="#585756" stroke-width="2.267" stroke-linecap="round" stroke-linejoin="round"/><path d="M43.467 119.846c-1.93 0-3.56-1.63-3.56-3.56 0-1.93 1.63-3.56 3.56-3.56h72.762" stroke="#FFF" stroke-width="1.722" stroke-linecap="round" stroke-linejoin="round"/></g></g></svg>