<svg xmlns="http://www.w3.org/2000/svg" width="501.298" height="646.753"><path fill="#6E6E6E" d="M328.373 6.195l-22.398.475H66.588c-31.579 0-57.163 25.553-57.163 57.106v518.893c0 31.56 25.584 57.125 57.163 57.125h368.603c31.566 0 57.151-25.565 57.151-57.131V196.161l.025-22.397L328.373 6.195zm113.179 576.469c0 3.497-2.857 6.329-6.354 6.329H66.588c-3.535 0-6.374-2.832-6.374-6.329V63.776c0-3.472 2.839-6.311 6.374-6.311h239.387v138.701h135.571v386.497h.006z"/><path fill="#6E6E6E" d="M308.008 514.849h70.115l-92.183-136.16 76.615-113.181h-70.114l-41.558 61.403-41.557-61.403h-70.14l76.64 113.181-92.176 136.16H276.005l-24.793-40.253h-30.209l29.88-44.137z"/></svg>