<svg xmlns="http://www.w3.org/2000/svg" width="25" height="29"><g fill="none" fill-rule="evenodd"><path d="M-3-1h32v32H-3z"/><path fill="#9B9B9B" fill-rule="nonzero" d="M7 0c2.623 0 4.75 2.08 4.75 4.647 0 1.358-.595 2.58-1.543 3.429l-.02-.009a7.501 7.501 0 013.273 2.399 7.511 7.511 0 012.578-1.5l.284-.09a4.096 4.096 0 01-1.072-2.761c0-2.297 1.903-4.158 4.25-4.158s4.25 1.861 4.25 4.158a4.129 4.129 0 01-1.8 3.399l.076.049c1.866 1.234 2.908 3.488 2.97 6.084L25 15.9c0 3.184-3.226 7.27-9.677 12.257a4.072 4.072 0 01-4.502.306 7.74 7.74 0 001.046-1.123c.83.343 1.801.226 2.526-.334l.748-.586c5.488-4.357 8.238-7.884 8.355-10.357l.004-.164c0-3.53-1.952-5.87-5-5.87a6.036 6.036 0 00-4.03 1.523 1.523 1.523 0 01-2.201-.195A6.036 6.036 0 007.5 9.05c-3.166 0-5.77 2.403-5.985 5.438l-.011.218-.004.19.003.223c.04 1.135.413 2.332 1.13 3.586l.078-.132c-.334.532-.57 1.183-.665 1.983C.744 18.699.063 16.903.004 15.168L0 14.92l.004-.237c.088-2.701 1.668-5.034 3.96-6.236l.231-.116-.054.027a4.604 4.604 0 01-1.891-3.71C2.25 2.08 4.377 0 7 0zm12.5 3.424c-1.519 0-2.75 1.205-2.75 2.69a2.69 2.69 0 001.609 2.45l.141-.003c.584 0 1.132.065 1.643.189l-.042-.01c1.23-.267 2.149-1.34 2.149-2.625 0-1.486-1.231-2.69-2.75-2.69zM7 1.468c-1.795 0-3.25 1.423-3.25 3.18 0 1.456 1 2.684 2.366 3.06a7.604 7.604 0 012.122-.09l-.065-.006c1.215-.459 2.077-1.613 2.077-2.965 0-1.756-1.455-3.18-3.25-3.18z"/><path fill="#D85565" fill-rule="nonzero" d="M8 12c2.016 0 3.65 1.612 3.65 3.6a3.56 3.56 0 01-.91 2.378C12.1 18.491 13 19.563 13 21.6c0 3.212-2.5 7.4-5 7.4s-5-4.188-5-7.4c0-2.037.9-3.11 2.26-3.623a3.556 3.556 0 01-.91-2.378C4.35 13.612 5.984 12 8 12zm0 6.854c-2.637 0-3.7.711-3.7 2.745 0 2.756 2.177 6.119 3.7 6.119 1.523 0 3.7-3.363 3.7-6.119 0-2.034-1.063-2.745-3.7-2.745zm0-5.572c-1.298 0-2.35 1.038-2.35 2.317a2.31 2.31 0 001.212 2.028c.301-.032.613-.049.932-.054L8 17.572c.391 0 .772.016 1.138.053a2.305 2.305 0 001.212-2.026c0-1.28-1.052-2.317-2.35-2.317z"/></g></svg>