<svg xmlns="http://www.w3.org/2000/svg" width="18" height="14"><path d="M1.99 10.72c0 1.074.968 1.944 2.161 1.944 1.194 0 2.161-.87 2.161-1.944m8.739-2.133c.285.208.903.208 1.215 0 .311-.209.376-.695.155-.99-.678-.898-1.781-1.434-2.95-1.434-.044 0-.085.004-.128.006 0 0-1.141-2.508-1.372-3.373.924-.131.924-1.679 0-1.777C9.477 1.019 7.607 1 7.607 1s-.163.039.055.039h2.214v4.837c0 1.901-1.96 2.11-2.23 2.113H6.209v-.632c0-.6-.376-1.892-1.16-1.892m-3.284 0c-.388.373-.64 1.348-.64 1.996v2.287h8.646m3.689 2.916c1.31 0 2.371-1.04 2.371-2.322s-1.062-2.32-2.371-2.32c-1.31 0-2.371 1.038-2.371 2.32 0 1.283 1.062 2.322 2.371 2.322h0zM1 3.484c0-.189.149-.342.34-.342h4.507a.34.34 0 01.34.342v1.637c0 .19-.149.342-.34.342H1.34a.337.337 0 01-.24-.1.338.338 0 01-.1-.242V3.484z" stroke="#4A4A4A" stroke-width=".972" fill="none" fill-rule="evenodd" stroke-linecap="round" stroke-linejoin="round"/></svg>