<svg xmlns="http://www.w3.org/2000/svg" width="91" height="71"><g fill="none" fill-rule="evenodd"><path fill="#F2CC38" d="M43.23 19.219c-.25-.15-.472-.344-.712-.512-1.248-.87-1.352-1.214-.797-2.604.265-.664.539-1.327.71-2.022.537-2.166-.39-3.624-2.565-4.096-.702-.152-1.415-.188-2.123-.26-1.588-.166-1.791-.35-2.067-1.901-.124-.7-.213-1.41-.416-2.098-.638-2.156-2.135-2.972-4.258-2.282-.836.273-1.613.686-2.404 1.065-.744.356-1.359.233-1.911-.407-.53-.614-.996-1.282-1.59-1.844-1.568-1.49-3.867-1.389-5.3.242-.494.563-.868 1.216-1.332 1.801-.693.875-1.07.987-2.112.59-.758-.289-1.494-.634-2.291-.819-2.194-.508-3.627.388-4.088 2.575-.168.795-.25 1.6-.3 2.412-.072 1.172-.415 1.528-1.58 1.73-.958.166-1.93.277-2.855.596-1.395.481-2.004 1.409-1.995 2.88.007 1.116.452 2.08.945 3.037.777 1.507.707 1.83-.566 2.905-.471.398-.965.767-1.395 1.216-1.454 1.518-1.368 3.828.196 5.236.486.438 1.037.782 1.562 1.163 1.218.885 1.332 1.249.78 2.625-.254.633-.507 1.268-.681 1.928-.584 2.213.333 3.692 2.566 4.168.764.163 1.543.2 2.316.276 1.292.127 1.604.42 1.825 1.714.163.958.273 1.93.622 2.848.494 1.302 1.38 1.87 2.756 1.893.987.017 1.856-.331 2.692-.76 2.317-1.187 2.305-.873 3.762.913.79.967 1.645 1.73 2.951 1.806l.976-.036c1.251-.174 2.107-.898 2.744-1.945.185-.304.404-.59.61-.88.743-1.04 1.128-1.16 2.316-.706.728.278 1.446.59 2.203.779 2.128.53 3.582-.363 4.077-2.485.186-.794.222-1.606.3-2.41.125-1.296.417-1.605 1.708-1.83.988-.173 1.994-.274 2.936-.658 1.25-.508 1.787-1.366 1.81-2.711.018-.987-.328-1.858-.758-2.69-1.1-2.13-.978-2.27.911-3.776.977-.778 1.73-1.643 1.807-2.948l-.036-.976c-.175-1.252-.895-2.113-1.948-2.742"/><path d="M31.003 3.445c-.836.272-1.614.685-2.405 1.064-.736.353-1.346.234-1.894-.39L2.81 26.979c.382.296.787.56 1.177.844 1.218.884 1.332 1.248.78 2.624-.255.633-.507 1.268-.681 1.928-.307 1.162-.195 2.12.298 2.837L35.246 5.685c-.644-2.124-2.135-2.926-4.243-2.24m5.159 5.791L7.512 36.682c.162.15 2.01-.518 2.948.776.629.867.57 3.682.826 3.797l31.002-29.64c.098-.28-1.028-1.096-1.59-1.302m.66 6.139L13.03 43.454c5.577-1.937 6.21-1.053 6.21-1.053l23.73-23.026-1.217-1.016" fill="#F7D986"/><path stroke="#575756" stroke-linecap="round" stroke-linejoin="round" stroke-width="1.667" d="M43.23 19.219c-.25-.15-.472-.344-.712-.512-1.248-.87-1.352-1.214-.797-2.604.265-.664.539-1.327.71-2.022.537-2.166-.39-3.624-2.565-4.096-.702-.152-1.415-.188-2.123-.26-1.588-.166-1.791-.35-2.067-1.901-.124-.7-.213-1.41-.416-2.098-.638-2.156-2.135-2.972-4.258-2.282-.836.273-1.613.686-2.404 1.065-.744.356-1.359.233-1.911-.407-.53-.614-.996-1.282-1.59-1.844-1.568-1.49-3.867-1.389-5.3.242-.494.563-.868 1.216-1.332 1.801-.693.875-1.07.987-2.112.59-.758-.289-1.494-.634-2.291-.819-2.194-.508-3.627.388-4.088 2.575-.168.795-.25 1.6-.3 2.412-.072 1.172-.415 1.528-1.58 1.73-.958.166-1.93.277-2.855.596-1.395.481-2.004 1.409-1.995 2.88.007 1.116.452 2.08.945 3.037.777 1.507.707 1.83-.566 2.905-.471.398-.965.767-1.395 1.216-1.454 1.518-1.368 3.828.196 5.236.486.438 1.037.782 1.562 1.163 1.218.885 1.332 1.249.78 2.625-.254.633-.507 1.268-.681 1.928-.584 2.213.333 3.692 2.566 4.168.764.163 1.543.2 2.316.276 1.292.127 1.604.42 1.825 1.714.163.958.273 1.93.622 2.848.494 1.302 1.38 1.87 2.756 1.893.987.017 1.856-.331 2.692-.76 2.317-1.187 2.305-.873 3.762.913.79.967 1.645 1.73 2.951 1.806l.976-.036c1.251-.174 2.107-.898 2.744-1.945.185-.304.404-.59.61-.88.743-1.04 1.128-1.16 2.316-.706.728.278 1.446.59 2.203.779 2.128.53 3.582-.363 4.077-2.485.186-.794.222-1.606.3-2.41.125-1.296.417-1.605 1.708-1.83.988-.173 1.994-.274 2.936-.658 1.25-.508 1.787-1.366 1.81-2.711.018-.987-.328-1.858-.758-2.69-1.1-2.13-.978-2.27.911-3.776.977-.778 1.73-1.643 1.807-2.948l-.036-.976c-.175-1.252-.895-2.113-1.948-2.742z"/><path stroke="#FFF" stroke-linecap="round" stroke-linejoin="round" stroke-width="1.44" d="M6.139 34.01c-.088-.351.142-1.505.18-1.65.146-.556.374-1.123.595-1.672.804-2.005.479-3.115-1.29-4.4-.155-.113-.31-.222-.467-.33-.334-.233-.65-.452-.91-.686a1.935 1.935 0 01-.662-1.366 1.927 1.927 0 01.557-1.407c.24-.25.533-.49.844-.744.126-.104.253-.207.378-.312 1.8-1.52 2.019-2.627.932-4.736-.399-.775-.73-1.476-.734-2.212-.005-.761.179-1.033.855-1.266.572-.198 1.216-.301 1.898-.411.202-.033.405-.065.607-.1 1.844-.321 2.718-1.286 2.831-3.131.052-.839.134-1.504.258-2.094.287-1.357.926-1.357 1.308-1.357.215 0 .459.031.724.093.447.103.911.29 1.403.49.199.079.398.16.598.236.579.22 1.01.315 1.439.315 1.307 0 2.046-.932 2.4-1.38.225-.281.418-.56.605-.83.214-.31.417-.602.629-.844.402-.457.922-.71 1.465-.71"/><path fill="#575756" d="M14.565 18.92h-4.426a.976.976 0 00-.986.988v6.23c0 .554.433.988.986.988a.977.977 0 00.987-.987v-2.14h2.93c.51 0 .908-.4.908-.908a.897.897 0 00-.908-.908h-2.93v-1.447h3.439c.508 0 .907-.399.907-.908s-.399-.907-.907-.907m6.827 2.815v.023c0 .626-.454 1-1.215 1h-1.643v-2.034h1.61c.466 0 1.248.13 1.248 1.011m1.996-.09c0-.77-.246-1.424-.712-1.89-.546-.546-1.372-.835-2.386-.835h-2.743a.976.976 0 00-.987.986v6.232c0 .554.434.987.987.987a.976.976 0 00.987-.987v-1.61h1.214l1.658 2.1c.265.34.567.497.95.497.463 0 .942-.344.942-.92 0-.322-.146-.533-.31-.74l-1.108-1.348c.988-.461 1.508-1.306 1.508-2.472m6.76 3.63h-3.46v-1.424h2.896a.892.892 0 00.896-.885.897.897 0 00-.896-.897h-2.897v-1.368h3.405a.892.892 0 00.896-.885.897.897 0 00-.896-.896h-4.38a.976.976 0 00-.987.987v6.163c0 .554.433.987.986.987h4.437a.892.892 0 00.897-.885.898.898 0 00-.897-.897m7.566 0h-3.46v-1.424h2.896a.892.892 0 00.896-.885.897.897 0 00-.896-.897h-2.897v-1.368h3.405a.892.892 0 00.896-.885.897.897 0 00-.896-.896h-4.38a.976.976 0 00-.987.987v6.163c0 .554.433.987.987.987h4.436a.892.892 0 00.897-.885.898.898 0 00-.897-.897"/><path fill="#A5A3A0" d="M60.98 24.97a2.732 2.732 0 01-2.72-2.675c0-.73.275-1.416.776-1.916.5-.523 1.185-.798 1.915-.82l6.417-.068a2.732 2.732 0 012.72 2.674c.022 1.484-1.186 2.72-2.675 2.742l-6.434.062z"/><path stroke="#575756" stroke-linecap="round" stroke-linejoin="round" stroke-width="1.667" d="M60.98 24.97a2.732 2.732 0 01-2.72-2.675c0-.73.275-1.416.776-1.916.5-.523 1.185-.798 1.915-.82l6.417-.068a2.732 2.732 0 012.72 2.674c.022 1.484-1.186 2.72-2.675 2.742l-6.434.062z"/><path fill="#FFF" d="M49.265 60.002c.067 5.208-4.113 9.478-9.316 9.545-5.209.068-9.479-4.112-9.546-9.315-.068-5.209 4.113-9.478 9.316-9.546 5.225-.068 9.495 4.107 9.546 9.316"/><path stroke="#595B5C" stroke-linecap="round" stroke-linejoin="round" stroke-width="1.667" d="M49.265 60.002c.067 5.208-4.113 9.478-9.316 9.545-5.209.068-9.479-4.112-9.546-9.315-.068-5.209 4.113-9.478 9.316-9.546 5.225-.068 9.495 4.107 9.546 9.316z"/><path fill="#E8C46E" d="M78.813 22.137a3.86 3.86 0 01-3.837 3.905 3.86 3.86 0 01-3.905-3.837 3.86 3.86 0 013.837-3.905c2.124 0 3.883 1.714 3.905 3.837"/><path stroke="#575756" stroke-linecap="round" stroke-linejoin="round" stroke-width="1.667" d="M78.813 22.137a3.86 3.86 0 01-3.837 3.905 3.86 3.86 0 01-3.905-3.837 3.86 3.86 0 013.837-3.905c2.124 0 3.883 1.714 3.905 3.837z"/><path fill="#83C7DC" d="M77.695 44.54l-4.433-17.998-6.945-2.697 1.759 19.986-11.193 7.333-8.04.185c-2.354.022-4.248 1.967-4.225 4.315.023 2.354 1.966 4.248 4.315 4.226l16.008-.23c2.354-.023 4.248-1.968 4.225-4.317a4.392 4.392 0 00-.984-2.673l2.742-7.058 6.77-1.073z"/><path stroke="#575756" stroke-linecap="round" stroke-linejoin="round" stroke-width="1.667" d="M77.695 44.54l-4.433-17.998-6.945-2.697 1.759 19.986-11.193 7.333-8.04.185c-2.354.022-4.248 1.967-4.225 4.315.023 2.354 1.966 4.248 4.315 4.226l16.008-.23c2.354-.023 4.248-1.968 4.225-4.317a4.403 4.403 0 00-.984-2.673l2.742-7.058 6.77-1.073z"/><path stroke="#FFF" stroke-linecap="round" stroke-linejoin="round" stroke-width="1.667" d="M70.166 41.865l-1.124-12.772"/><path fill="#FFF" d="M88.337 59.457c.067 5.208-4.113 9.478-9.316 9.545-5.208.068-9.479-4.112-9.546-9.315-.068-5.209 4.113-9.479 9.316-9.546 5.208-.073 9.478 4.107 9.546 9.316"/><path stroke="#595B5C" stroke-linecap="round" stroke-linejoin="round" stroke-width="1.667" d="M88.337 59.457c.067 5.208-4.113 9.478-9.316 9.545-5.208.068-9.479-4.112-9.546-9.315-.068-5.209 4.113-9.479 9.316-9.546 5.208-.073 9.478 4.107 9.546 9.316z"/><path fill="#A5A3A0" d="M83.201 59.524a4.283 4.283 0 01-4.247 4.337 4.285 4.285 0 01-4.338-4.247 4.284 4.284 0 014.248-4.337 4.283 4.283 0 014.337 4.247"/><path stroke="#575756" stroke-width="1.667" d="M83.201 59.524a4.283 4.283 0 01-4.247 4.337 4.285 4.285 0 01-4.338-4.247 4.284 4.284 0 014.248-4.337 4.283 4.283 0 014.337 4.247z"/><path fill="#A5A3A0" d="M44.146 60.069a4.284 4.284 0 01-4.248 4.337 4.283 4.283 0 01-4.337-4.247 4.285 4.285 0 014.248-4.338c2.348-.022 4.292 1.877 4.337 4.248"/><path stroke="#575756" stroke-width="1.667" d="M44.146 60.069a4.284 4.284 0 01-4.248 4.337 4.283 4.283 0 01-4.337-4.247 4.285 4.285 0 014.248-4.338c2.348-.022 4.292 1.877 4.337 4.248z"/><path fill="#83C7DC" d="M72.51 44.747c-6.76 2.652-10.075 10.299-7.423 17.036l24.458-9.636c-2.647-6.76-10.271-10.074-17.036-7.4"/><path stroke="#575756" stroke-linecap="round" stroke-linejoin="round" stroke-width="1.667" d="M72.51 44.747c-6.76 2.652-10.075 10.299-7.423 17.036l24.458-9.636c-2.647-6.76-10.271-10.074-17.036-7.4z"/><path stroke="#FFF" stroke-linecap="round" stroke-linejoin="round" stroke-width="1.667" d="M66.576 58.782a10.863 10.863 0 01.764-6.17 10.778 10.778 0 015.995-5.775 10.905 10.905 0 014.012-.77"/><path fill="#83C7DC" d="M74.751 27.571l-9.159-1.551-.089-6.922 9.13-1.759z"/><path stroke="#575756" stroke-linecap="round" stroke-linejoin="round" stroke-width="1.667" d="M74.751 27.571l-9.159-1.551-.089-6.922 9.13-1.759z"/><path fill="#83C7DC" d="M32.796 42.623l20.008-.23.135 12.743-25.806.298z"/><path stroke="#575756" stroke-linecap="round" stroke-linejoin="round" stroke-width="1.667" d="M32.796 42.623l20.008-.23.135 12.743-25.806.298z"/><path fill="#E8C46E" d="M27.818 54.793a.935.935 0 01-.343-.068l-3.04-1.073c-.275-.09-.5-.297-.617-.572a1.069 1.069 0 010-.843l2.258-5.343c.158-.41.551-.642.984-.642.112 0 .208.023.32.045l3.242 1.029a1 1 0 01.64.573c.113.275.113.595 0 .865l-2.444 5.411c-.202.393-.59.618-1 .618"/><path fill="#A5A3A0" d="M59.126 39.291a3.882 3.882 0 01-3.838 3.928l-21.604.252a3.879 3.879 0 01-3.927-3.838 3.88 3.88 0 013.837-3.927l21.604-.252a3.877 3.877 0 013.928 3.837"/><path stroke="#575756" stroke-width="1.667" d="M59.126 39.291a3.882 3.882 0 01-3.838 3.928l-21.604.252a3.879 3.879 0 01-3.927-3.838 3.88 3.88 0 013.837-3.927l21.604-.252a3.877 3.877 0 013.928 3.837z"/><path stroke="#575756" stroke-linecap="round" stroke-linejoin="round" stroke-width="1.667" d="M27.818 54.793a.935.935 0 01-.343-.068l-3.04-1.073c-.275-.09-.5-.297-.617-.572a1.069 1.069 0 010-.843l2.258-5.343c.158-.41.551-.642.984-.642.112 0 .208.023.32.045l3.242 1.029a1 1 0 01.64.573c.113.275.113.595 0 .865l-2.444 5.411c-.202.393-.59.618-1 .618z"/><path fill="#83C7DC" d="M40.01 45.983c-7.742.208-13.86 6.625-13.659 14.367l28.043-.708c-.196-7.748-6.64-13.867-14.383-13.659"/><path stroke="#575756" stroke-linecap="round" stroke-linejoin="round" stroke-width="1.667" d="M40.01 45.983c-7.742.208-13.86 6.625-13.659 14.367l28.043-.708c-.196-7.748-6.64-13.867-14.383-13.659z"/><path stroke="#FFF" stroke-linecap="round" stroke-linejoin="round" stroke-width="1.667" d="M28.757 58.035a11.634 11.634 0 013.078-6.152 11.726 11.726 0 018.243-3.658c.107 0 .213-.006.32-.006 3.17 0 6.074 1.292 8.21 3.383"/></g></svg>