<svg xmlns="http://www.w3.org/2000/svg" width="32" height="32"><path fill="#4A4A4A" fill-rule="evenodd" d="M23.697 3C25.504 3 27 4.507 27 6.388v20.223C27 28.49 25.504 30 23.697 30H8.304C6.497 30 5 28.492 5 26.61V6.389C5 4.508 6.497 3 8.304 3h15.393zm0 2.054H8.304c-.774 0-1.387.617-1.387 1.334v20.223c0 .717.613 1.335 1.387 1.335h15.393c.773 0 1.386-.618 1.386-1.335V6.388c0-.717-.613-1.334-1.386-1.334zm-9.254 13.562c.53 0 .959.46.959 1.027s-.43 1.027-.959 1.027h-4.259c-.529 0-.958-.46-.958-1.027s.43-1.027.958-1.027h4.26zm6.893-5.056c.53 0 .959.46.959 1.027s-.43 1.027-.959 1.027H10.184c-.529 0-.958-.46-.958-1.027s.43-1.027.958-1.027h11.152zm0-5.055c.53 0 .959.46.959 1.027s-.43 1.027-.959 1.027H10.184c-.529 0-.958-.46-.958-1.027s.43-1.027.958-1.027h11.152z"/></svg>