<svg xmlns="http://www.w3.org/2000/svg" width="24" height="24"><g fill="none" fill-rule="evenodd"><path fill="#D9DADA" d="M11.567.373C5.179.373 0 5.552 0 11.94s5.179 11.567 11.567 11.567 11.567-5.179 11.567-11.567S17.954.373 11.567.373"/><path fill="#FEFEFE" d="M14.283 11.137a.731.731 0 110-1.462.731.731 0 010 1.462"/><path fill="#FEFEFE" d="M16.394 10.406a2.114 2.114 0 01-2.111 2.111 2.113 2.113 0 01-2.11-2.111c0-1.164.946-2.111 2.11-2.111s2.111.947 2.111 2.111m1.902-.806l-.823-.292a3.445 3.445 0 00-.147-.357l.375-.788a.234.234 0 00-.046-.266l-.848-.848a.233.233 0 00-.266-.046l-.78.37a3.318 3.318 0 00-.37-.154l-.288-.812a.234.234 0 00-.22-.155h-1.2a.234.234 0 00-.22.155l-.288.812a3.378 3.378 0 00-.37.155l-.78-.37a.233.233 0 00-.265.045l-.849.848a.234.234 0 00-.046.266l.375.788a3.365 3.365 0 00-.147.357l-.823.292a.234.234 0 00-.156.221v1.2c0 .098.063.187.156.22l.834.296c.041.115.089.228.143.34l-.382.801a.234.234 0 00.046.266l.849.848c.07.07.176.089.266.046l.81-.386c.11.053.218.098.327.137l.3.845a.234.234 0 00.22.155h1.2a.234.234 0 00.22-.155l.3-.845c.109-.039.218-.084.327-.137l.81.386c.09.043.197.024.267-.046l.848-.848a.234.234 0 00.046-.266l-.382-.802c.054-.111.102-.224.143-.339l.834-.296a.234.234 0 00.156-.22v-1.2c0-.1-.063-.188-.156-.22M7.822 15.028a.551.551 0 110-1.102.551.551 0 010 1.102"/><path fill="#FEFEFE" d="M9.412 14.477c0 .877-.713 1.59-1.59 1.59-.877 0-1.59-.713-1.59-1.59 0-.877.713-1.59 1.59-1.59.877 0 1.59.713 1.59 1.59m1.433-.607l-.62-.22a2.562 2.562 0 00-.111-.269l.282-.593a.176.176 0 00-.035-.2l-.638-.64a.175.175 0 00-.2-.034l-.587.28a2.609 2.609 0 00-.28-.118l-.216-.61a.177.177 0 00-.166-.118H7.37a.176.176 0 00-.166.117l-.217.611a2.577 2.577 0 00-.279.117l-.587-.279a.175.175 0 00-.2.034l-.639.64a.177.177 0 00-.034.2l.282.593c-.043.089-.08.179-.111.27l-.62.22a.177.177 0 00-.117.166v.903c0 .074.047.141.117.166l.629.223c.03.086.066.172.107.255l-.287.604a.177.177 0 00.034.201l.64.639a.175.175 0 00.2.034l.61-.29c.082.039.164.073.246.102l.226.637c.025.07.092.117.166.117h.904a.177.177 0 00.166-.117l.226-.637c.081-.029.164-.063.246-.102l.61.29a.175.175 0 00.2-.034l.64-.639a.176.176 0 00.034-.2l-.288-.605c.042-.083.077-.169.108-.255l.629-.223a.177.177 0 00.117-.166v-.903a.177.177 0 00-.117-.167"/></g></svg>