<svg xmlns="http://www.w3.org/2000/svg" style="margin:auto;background:0 0" width="20" height="20" viewBox="0 0 100 100" preserveAspectRatio="xMidYMid" display="block"><rect x="67" y="67" rx="12" ry="12" width="20" height="20" fill="#c1c1c1"><animate attributeName="opacity" values="1;0" keyTimes="0;1" dur="1s" begin="-0.8888888888888888s" repeatCount="indefinite"/></rect><rect x="67" y="67" rx="12" ry="12" width="20" height="20" fill="#c1c1c1" transform="rotate(40 50 50)"><animate attributeName="opacity" values="1;0" keyTimes="0;1" dur="1s" begin="-0.7777777777777778s" repeatCount="indefinite"/></rect><rect x="67" y="67" rx="12" ry="12" width="20" height="20" fill="#c1c1c1" transform="rotate(80 50 50)"><animate attributeName="opacity" values="1;0" keyTimes="0;1" dur="1s" begin="-0.6666666666666666s" repeatCount="indefinite"/></rect><rect x="67" y="67" rx="12" ry="12" width="20" height="20" fill="#c1c1c1" transform="rotate(120 50 50)"><animate attributeName="opacity" values="1;0" keyTimes="0;1" dur="1s" begin="-0.5555555555555556s" repeatCount="indefinite"/></rect><rect x="67" y="67" rx="12" ry="12" width="20" height="20" fill="#c1c1c1" transform="rotate(160 50 50)"><animate attributeName="opacity" values="1;0" keyTimes="0;1" dur="1s" begin="-0.4444444444444444s" repeatCount="indefinite"/></rect><rect x="67" y="67" rx="12" ry="12" width="20" height="20" fill="#c1c1c1" transform="rotate(200 50 50)"><animate attributeName="opacity" values="1;0" keyTimes="0;1" dur="1s" begin="-0.3333333333333333s" repeatCount="indefinite"/></rect><rect x="67" y="67" rx="12" ry="12" width="20" height="20" fill="#c1c1c1" transform="rotate(240 50 50)"><animate attributeName="opacity" values="1;0" keyTimes="0;1" dur="1s" begin="-0.2222222222222222s" repeatCount="indefinite"/></rect><rect x="67" y="67" rx="12" ry="12" width="20" height="20" fill="#c1c1c1" transform="rotate(280 50 50)"><animate attributeName="opacity" values="1;0" keyTimes="0;1" dur="1s" begin="-0.1111111111111111s" repeatCount="indefinite"/></rect><rect x="67" y="67" rx="12" ry="12" width="20" height="20" fill="#c1c1c1" transform="rotate(320 50 50)"><animate attributeName="opacity" values="1;0" keyTimes="0;1" dur="1s" begin="0s" repeatCount="indefinite"/></rect></svg>