<svg xmlns="http://www.w3.org/2000/svg" width="28" height="43"><path d="M19.458 17.804l-.382.517-5.292 7.215-5.279-7.203-.388-.523a6.563 6.563 0 01-1.326-3.943c0-3.729 3.14-6.763 6.993-6.763 3.858 0 6.995 3.034 6.995 6.763a6.552 6.552 0 01-1.321 3.937M13.784.542C6.184.542 0 6.52 0 13.867c0 2.8.903 5.485 2.6 7.77l.368.491 7.176 9.79s.874 1.386 2.785 1.386h1.711c1.913 0 2.784-1.386 2.784-1.386l7.179-9.79.365-.49c1.7-2.286 2.6-4.971 2.6-7.77C27.568 6.52 21.385.541 13.784.541M9.908 39.312v-.027c0-1.988 1.636-3.64 3.844-3.64 2.21 0 3.833 1.625 3.833 3.617v.023c0 1.975-1.639 3.623-3.86 3.623-2.192 0-3.817-1.618-3.817-3.596" fill="#FFC244" fill-rule="evenodd"/></svg>