<svg xmlns="http://www.w3.org/2000/svg" xmlns:xlink="http://www.w3.org/1999/xlink" width="149" height="49" viewBox="0 0 149 49">
    <defs>
        <path id="a" d="M.32.237h22.489v27.646H.319V.237z"/>
    </defs>
    <g fill="none" fill-rule="evenodd">
        <path fill="#00A082" d="M0 31.725v-.097c0-9.274 7.1-17.132 17.087-17.132 4.969 0 8.282 1.183 11.31 3.362a2.948 2.948 0 0 1 1.184 2.365c0 1.563-1.277 2.888-2.887 2.888-.757 0-1.325-.33-1.798-.664-2.13-1.56-4.449-2.603-8.045-2.603-6.106 0-10.744 5.35-10.744 11.691v.093c0 6.817 4.495 11.833 11.263 11.833 3.125 0 5.964-.994 7.999-2.508v-6.199h-6.532c-1.42 0-2.602-1.09-2.602-2.509 0-1.42 1.182-2.556 2.602-2.556h9.231c1.655 0 2.933 1.277 2.933 2.936v8.849c0 1.657-.662 2.84-2.035 3.691-2.841 1.894-6.816 3.598-11.784 3.598C6.815 48.763 0 41.379 0 31.725M36.22 16.248a2.818 2.818 0 0 1 2.84-2.84c1.608 0 2.888 1.277 2.888 2.84v29.344c0 1.61-1.28 2.839-2.889 2.839a2.817 2.817 0 0 1-2.84-2.84V16.249zM67.301 35.842v-.095c0-4.402-3.17-8.046-7.666-8.046-4.592 0-7.526 3.597-7.526 7.952v.094c0 4.355 3.171 7.998 7.62 7.998 4.637 0 7.572-3.596 7.572-7.903m-20.918 0v-.095c0-7.147 5.678-13.063 13.346-13.063 7.667 0 13.3 5.821 13.3 12.97v.093c0 7.1-5.68 13.016-13.394 13.016-7.622 0-13.252-5.82-13.252-12.92M87.326 48.669h-.283c-1.562 0-2.604-.995-3.266-2.51L75.45 27.085c-.144-.426-.332-.898-.332-1.42 0-1.42 1.277-2.744 2.838-2.744 1.562 0 2.367.898 2.841 2.082l6.436 16.562 6.532-16.657c.425-.992 1.183-1.987 2.697-1.987 1.562 0 2.793 1.183 2.793 2.744 0 .521-.19 1.09-.33 1.372l-8.33 19.12c-.664 1.468-1.705 2.51-3.268 2.51M122.26 35.842v-.095c0-4.402-3.17-8.046-7.666-8.046-4.591 0-7.525 3.597-7.525 7.952v.094c0 4.355 3.17 7.998 7.62 7.998 4.637 0 7.572-3.596 7.572-7.903m-20.918 0v-.095c0-7.147 5.679-13.063 13.347-13.063 7.666 0 13.298 5.821 13.298 12.97v.093c0 7.1-5.68 13.016-13.394 13.016-7.62 0-13.251-5.82-13.251-12.92"/>
        <g transform="translate(126 -.237)">
            <mask id="b" fill="#fff">
                <use xlink:href="#a"/>
            </mask>
            <path fill="#F2CC38" d="M16.193 14.802l-.312.438-4.316 6.089-4.31-6.078-.315-.442a5.655 5.655 0 0 1-1.082-3.326 5.711 5.711 0 0 1 5.707-5.707 5.712 5.712 0 0 1 5.706 5.707c0 1.192-.373 2.34-1.078 3.319M11.565.237C5.362.237.32 5.282.32 11.483c0 2.36.735 4.629 2.12 6.555l.3.416 5.855 8.262s.714 1.167 2.272 1.167H12.263c1.56 0 2.271-1.167 2.271-1.167l5.856-8.262.298-.416a11.15 11.15 0 0 0 2.121-6.555C22.81 5.282 17.764.237 11.565.237" mask="url(#b)"/>
        </g>
        <path fill="#F2CC38" d="M134.402 32.718v-.02c0-1.683 1.334-3.073 3.136-3.073 1.803 0 3.127 1.37 3.127 3.05v.022c0 1.667-1.335 3.057-3.15 3.057-1.788 0-3.113-1.367-3.113-3.036"/>
    </g>
</svg>
