<svg xmlns="http://www.w3.org/2000/svg" width="126" height="130"><g fill="none" fill-rule="evenodd"><path fill="#F4F4F4" fill-rule="nonzero" stroke="#E4E4E4" stroke-linejoin="round" stroke-width="4" d="M65.431 2L102 38.569v75.647l-12.495 13L76.905 114l-12.408 13.216L52 114l-12.511 13.216L27.577 114l-13.096 13.216L2 114V12C2 6.477 6.477 2 12 2h53.431z"/><path fill="#EBEBEB" fill-rule="nonzero" stroke="#E4E4E4" stroke-linejoin="round" stroke-width="4" d="M70 38.263h32L66 2.345v31.918a4 4 0 004 4z"/><path stroke="#D8D8D8" stroke-linecap="round" stroke-width="6" d="M17.797 61.5h45m-45 37.5H84M17.797 80.24h45"/><g stroke-width="4"><path fill="#F4F4F4" fill-rule="nonzero" stroke="#E4E4E4" d="M99.5 31C85.97 31 75 41.969 75 55.5c0 4.931 1.462 9.518 3.968 13.362l-3.631 9.437.012.005a1.31 1.31 0 00-.06.373c0 .73.592 1.323 1.323 1.323.156 0 .304-.032.444-.082l.06-.022.032-.012 9.059-3.809A24.376 24.376 0 0099.5 80c13.531 0 24.5-10.97 24.5-24.5C124 41.969 113.031 31 99.5 31"/><path stroke="#FFF" stroke-linecap="round" stroke-linejoin="round" d="M99 38c-9.941 0-18 8.059-18 18"/></g><text fill="#D8D8D8" font-family="Helvetica" font-size="32" transform="translate(2 2)"><tspan x="89" y="64">?</tspan></text><path stroke="#FFF" stroke-linecap="round" stroke-linejoin="round" stroke-width="4" d="M52.156 8H16a8 8 0 00-8 8v80.658"/></g></svg>