<svg xmlns="http://www.w3.org/2000/svg" width="20" height="26"><path d="M9.888 25.615c-1.255 0-2.281-1.038-2.281-2.306 0-.23.057-.404.057-.577h4.391c.057.173.057.404.057.577.057 1.268-.97 2.306-2.224 2.306m9.432-7.795c-.004-.005-1.823-2.073-1.823-7.419 0-4.512-2.883-6.37-4.715-7.094a1.019 1.019 0 01-.645-.949c0-1.215-.898-2.247-2.043-2.35A2.203 2.203 0 009.86 0a2.2 2.2 0 00-.233.009C8.483.11 7.585 1.143 7.585 2.358c0 .422-.257.796-.645.95-1.833.724-4.716 2.581-4.716 7.093 0 5.346-1.818 7.414-1.822 7.419-.194.195-.402.574-.402.942v1.541c0 .338.274.615.608.615h18.505a.613.613 0 00.608-.615v-1.541c0-.368-.208-.747-.401-.942" fill="#6F6E6E" fill-rule="evenodd"/></svg>