<svg xmlns="http://www.w3.org/2000/svg" width="48" height="48"><g fill="none" fill-rule="evenodd"><path fill="#F2CC38" d="M41.379 26.73c0 9.57-7.757 17.327-17.326 17.327-9.57 0-17.326-7.757-17.326-17.326S14.484 9.405 24.053 9.405s17.326 7.757 17.326 17.326z"/><path stroke="#595959" stroke-linecap="round" stroke-linejoin="round" stroke-width=".869" d="M41.379 26.73c0 9.57-7.757 17.327-17.326 17.327-9.57 0-17.326-7.757-17.326-17.326S14.484 9.405 24.053 9.405s17.326 7.757 17.326 17.326z"/><path fill="#F7DE72" d="M32.608 18.073c4.766 4.766 4.766 12.494 0 17.26-4.766 4.766-12.494 4.766-17.26 0-4.766-4.766-4.766-12.494 0-17.26 4.766-4.766 12.494-4.766 17.26 0z"/><path stroke="#595959" stroke-linecap="round" stroke-linejoin="round" stroke-width=".869" d="M25.934 14.656c6.653 1.08 11.17 7.35 10.09 14.002-1.08 6.653-7.348 11.171-14.001 10.091s-11.171-7.348-10.091-14.002c1.08-6.653 7.348-11.17 14.002-10.09z"/><path fill="#575756" d="M16.79 23.127v-.038c0-1.903 1.326-3.44 3.287-3.44 1.96 0 3.245 1.518 3.245 3.401v.039c0 1.88-1.326 3.438-3.284 3.438-1.958 0-3.248-1.519-3.248-3.4zm4.517 0v-.038c0-.903-.5-1.682-1.269-1.682-.807 0-1.23.769-1.23 1.653v.038c0 .904.5 1.682 1.269 1.682.807-.002 1.23-.788 1.23-1.653zm-2.162 8.723l8.588-11.76a.975.975 0 01.788-.403c.5 0 .904.404.904.903a.96.96 0 01-.212.615l-8.579 11.76a.975.975 0 01-.788.404.903.903 0 01-.903-.904c.005-.221.08-.436.211-.615h-.01zm5.898-1.845v-.038c0-1.903 1.326-3.44 3.286-3.44s3.248 1.518 3.248 3.402v.038c0 1.883-1.326 3.44-3.286 3.44s-3.239-1.518-3.239-3.402h-.01zm4.516 0v-.038c0-.903-.5-1.682-1.268-1.682-.808 0-1.23.769-1.23 1.653v.039c0 .903.5 1.681 1.268 1.681.817 0 1.24-.79 1.24-1.653h-.01z"/><path fill="#595959" d="M15.034 18.902a.461.461 0 01-.31-.12l-3.723-3.405a.484.484 0 01-.15-.317.471.471 0 01.12-.33 17.779 17.779 0 015.45-4.042.466.466 0 01.35-.017c.116.04.21.127.26.24l2.186 4.565a.457.457 0 01-.223.61 11.702 11.702 0 00-3.619 2.669.453.453 0 01-.34.147zm-3.072-3.89l3.05 2.79a12.654 12.654 0 013.184-2.348l-1.79-3.74a16.763 16.763 0 00-4.444 3.298zm16.792.896a.452.452 0 01-.177-.036 11.659 11.659 0 00-4.565-.918h-.195a.457.457 0 01-.456-.447l-.113-5.088a.458.458 0 01.447-.48h.391c2.33-.003 4.639.454 6.792 1.345.23.1.337.367.24.598l-1.955 4.735a.448.448 0 01-.24.24.46.46 0 01-.169.051zm-4.49-1.857c1.448.027 2.88.302 4.233.814l1.605-3.887a16.74 16.74 0 00-5.93-1.107l.092 4.18z"/><path fill="#595959" d="M18.804 16.124a.458.458 0 01-.414-.262l-2.183-4.564a.457.457 0 01.213-.61 17.64 17.64 0 017.282-1.728.462.462 0 01.481.45l.112 5.085a.457.457 0 01-.451.481 11.64 11.64 0 00-4.831 1.12.468.468 0 01-.21.028zm-1.572-4.804l1.79 3.747c1.37-.59 2.835-.93 4.325-1.006l-.094-4.17c-2.078.096-4.12.58-6.02 1.426v.003zm-4.651 11.577a.43.43 0 01-.158-.03l-4.735-1.76a.462.462 0 01-.257-.24.455.455 0 010-.351 17.652 17.652 0 013.54-5.785.458.458 0 01.647-.029l3.724 3.404a.46.46 0 01.029.649 11.659 11.659 0 00-2.36 3.844.457.457 0 01-.43.298zm-4.13-2.484l3.869 1.441a12.591 12.591 0 012.073-3.363l-3.051-2.802a16.742 16.742 0 00-2.89 4.724zm27.765 6.445a.453.453 0 01-.456-.444 11.64 11.64 0 00-.95-4.358.46.46 0 01.241-.6l4.747-2.07a.46.46 0 01.603.241 17.635 17.635 0 011.468 6.626.451.451 0 01-.444.468l-5.194.142-.015-.005zm-.391-4.742c.473 1.22.754 2.508.83 3.815l4.28-.115a16.75 16.75 0 00-1.202-5.406l-3.908 1.706z"/><path fill="#595959" d="M6.78 27.658a.454.454 0 01-.457-.444v-.484a17.715 17.715 0 011.117-6.212.457.457 0 01.589-.269l4.704 1.761c.235.09.355.352.269.589a11.68 11.68 0 00-.738 4.103v.348a.458.458 0 01-.444.481l-5.045.137.005-.01zm1.352-6.4a16.815 16.815 0 00-.906 5.463l4.133-.11a12.56 12.56 0 01.653-3.9l-3.88-1.453zm27.099 1.074a.463.463 0 01-.168-.031.458.458 0 01-.24-.24 11.667 11.667 0 00-2.528-3.686.461.461 0 010-.646l3.604-3.678a.458.458 0 01.646-.005 17.766 17.766 0 013.844 5.586.46.46 0 01-.24.603l-4.747 2.07a.452.452 0 01-.17.027zm-1.975-4.29a12.55 12.55 0 012.206 3.233l3.909-1.698a16.802 16.802 0 00-3.145-4.565l-2.97 3.03z"/><path fill="#595959" d="M32.617 18.498a.464.464 0 01-.322-.132 11.644 11.644 0 00-3.706-2.494.46.46 0 01-.24-.598l1.955-4.733a.454.454 0 01.24-.24.461.461 0 01.35 0 17.71 17.71 0 015.66 3.745.457.457 0 010 .646l-3.603 3.679a.453.453 0 01-.324.136l-.01-.01zm-3.27-3.287a12.566 12.566 0 013.26 2.187l2.968-3.025a16.809 16.809 0 00-4.62-3.056l-1.607 3.894zm-5.253 29.305a17.73 17.73 0 01-6.797-1.345.46.46 0 01-.24-.599l1.956-4.737c.1-.23.365-.336.595-.24 1.403.568 2.903.858 4.416.852h.344a.453.453 0 01.47.447l.113 5.151a.455.455 0 01-.447.468h-.139c-.1 0-.185.003-.271.003zm-6.006-2.023a16.72 16.72 0 005.922 1.108l-.094-4.238a12.581 12.581 0 01-4.216-.764l-1.612 3.894z"/><path fill="#595959" d="M24.478 44.506a.458.458 0 01-.454-.449l-.113-5.15a.457.457 0 01.445-.467 11.631 11.631 0 004.785-1.163.457.457 0 01.613.221l2.234 4.678a.457.457 0 01-.214.61 17.616 17.616 0 01-7.282 1.727l-.014-.007zm.353-5.172l.094 4.24a16.68 16.68 0 006.032-1.43l-1.84-3.843a12.517 12.517 0 01-4.286 1.033z"/><path fill="#595959" d="M31.57 42.822a.443.443 0 01-.411-.266l-2.237-4.676a.46.46 0 01.214-.61 11.726 11.726 0 003.57-2.669.46.46 0 01.649-.031l3.844 3.507c.088.084.14.197.149.318a.485.485 0 01-.12.331 17.791 17.791 0 01-5.45 4.046.465.465 0 01-.208.05zm-1.629-4.927l1.843 3.844a16.795 16.795 0 004.444-3.301l-3.159-2.883a12.611 12.611 0 01-3.128 2.34z"/><path fill="#595959" d="M36.88 38.88a.454.454 0 01-.308-.118l-3.844-3.507a.463.463 0 01-.029-.647 11.588 11.588 0 002.32-3.803.463.463 0 01.59-.269l4.876 1.819c.114.043.207.13.257.24a.452.452 0 010 .35c-.796 2.141-2 4.107-3.543 5.79a.453.453 0 01-.32.145zm-3.196-4l3.164 2.883c1.216-1.404 2.19-3 2.883-4.723l-4.02-1.497a12.485 12.485 0 01-2.027 3.337zm-25.473-.767a.462.462 0 01-.42-.273 17.655 17.655 0 01-1.468-6.626.45.45 0 01.125-.327.45.45 0 01.32-.142l5.045-.139a.46.46 0 01.468.444c.043 1.516.38 3.01.992 4.397a.453.453 0 01-.24.602l-4.644 2.026a.434.434 0 01-.178.038zm-.96-6.467a16.748 16.748 0 001.2 5.406l3.801-1.66a12.493 12.493 0 01-.87-3.859l-4.132.113z"/><path fill="#595959" d="M40.334 33.241a.487.487 0 01-.161-.028l-4.877-1.819a.452.452 0 01-.255-.24.469.469 0 01-.014-.351c.49-1.312.74-2.702.74-4.103v-.291a.448.448 0 01.444-.466l5.194-.142a.458.458 0 01.469.445v.483a17.711 17.711 0 01-1.117 6.212.456.456 0 01-.423.3zm-4.298-2.546l4.02 1.499c.602-1.758.908-3.604.905-5.463l-4.284.115a12.65 12.65 0 01-.641 3.849zm-24.072 8.862a.458.458 0 01-.32-.132 17.742 17.742 0 01-3.843-5.585.46.46 0 01.24-.603l4.644-2.026a.452.452 0 01.35-.004.452.452 0 01.25.245 11.754 11.754 0 002.57 3.683.458.458 0 01.001.651L12.29 39.42a.455.455 0 01-.322.137h-.005zM8.819 33.89a16.758 16.758 0 003.145 4.565l2.93-2.989a12.58 12.58 0 01-2.257-3.236l-3.818 1.66z"/><path fill="#595959" d="M17.48 43.204a.482.482 0 01-.176-.033 17.735 17.735 0 01-5.66-3.746.46.46 0 010-.646l3.558-3.635a.46.46 0 01.647 0 11.646 11.646 0 003.76 2.45.468.468 0 01.24.24.476.476 0 010 .352l-1.956 4.735a.454.454 0 01-.24.24.474.474 0 01-.173.043zm-4.865-4.115a16.809 16.809 0 004.62 3.056l1.605-3.89a12.577 12.577 0 01-3.296-2.162l-2.929 2.996z"/><path fill="#F6D546" d="M44.565 41.825l.6-2.765 2.619-1.071a.36.36 0 00-.058-.654l-2.767-.59-1.07-2.617a.342.342 0 00-.653.058l-.591 2.765-2.619 1.071a.344.344 0 00.06.654l2.754.6 1.071 2.619a.343.343 0 00.654-.06v-.01z"/><path stroke="#575756" stroke-linecap="round" stroke-linejoin="round" stroke-width=".869" d="M44.565 41.825l.6-2.765 2.619-1.071a.36.36 0 00-.058-.654l-2.767-.59-1.07-2.617a.342.342 0 00-.653.058l-.591 2.765-2.619 1.071a.344.344 0 00.06.654l2.754.6 1.071 2.619a.343.343 0 00.654-.06v-.01z"/><path fill="#F6D546" d="M4.048 9.153l-.589 3.363L.353 13.92a.428.428 0 00-.21.426c.02.17.143.313.309.36l3.363.588 1.408 3.107a.414.414 0 00.783-.099l.589-3.363L9.7 13.532a.413.413 0 00-.091-.783l-3.363-.589-1.415-3.106a.414.414 0 00-.783.099z"/><path stroke="#575756" stroke-linecap="round" stroke-linejoin="round" stroke-width=".869" d="M4.048 9.153l-.589 3.363L.353 13.92a.428.428 0 00-.21.426c.02.171.143.313.309.36l3.363.588 1.408 3.107a.414.414 0 00.783-.099l.589-3.363L9.7 13.532a.413.413 0 00-.091-.783l-3.363-.589-1.415-3.106a.414.414 0 00-.783.099z"/><path stroke="#FFF" stroke-linecap="round" stroke-linejoin="round" stroke-width=".721" d="M1.833 14.044l2.273-1.031.399-2.292"/><path fill="#F6D546" d="M8.649 3.37L8.23 5.756l-2.206.999a.308.308 0 00.072.557l2.386.416.997 2.205c.052.119.176.19.305.173a.294.294 0 00.252-.242l.418-2.386 2.206-1a.293.293 0 00-.072-.557l-2.384-.415L9.206 3.3a.292.292 0 00-.556.07z"/><path stroke="#575756" stroke-linecap="round" stroke-linejoin="round" stroke-width=".869" d="M8.649 3.37L8.23 5.756l-2.206.999a.308.308 0 00.072.557l2.386.416.997 2.205c.052.119.176.19.305.173a.294.294 0 00.252-.242l.418-2.386 2.206-1a.293.293 0 00-.072-.557l-2.384-.415L9.206 3.3a.292.292 0 00-.556.07h0z"/><path stroke="#FFF" stroke-linecap="round" stroke-linejoin="round" stroke-width=".721" d="M13.694 31.264a11.388 11.388 0 0114.073-15.346M8.408 31.96a16.39 16.39 0 01-.893-5.354c0-9.071 7.594-16.425 16.665-16.425 1.99-.002 3.964.358 5.826 1.062M7.993 6.738l.903-.408.219-1.153"/><path fill="#FFE783" d="M15.702 6.582l-.416 2.386-2.205.999a.308.308 0 00.072.557l2.383.416 1 2.205a.293.293 0 00.557-.072l.418-2.385 2.205-1a.295.295 0 00.169-.305.29.29 0 00-.24-.24l-2.386-.418-.997-2.205a.295.295 0 00-.56.072v-.01z"/><path stroke="#575756" stroke-linecap="round" stroke-linejoin="round" stroke-width=".869" d="M15.702 6.582l-.416 2.386-2.205.999a.308.308 0 00.072.557l2.383.416 1 2.205a.293.293 0 00.557-.072l.418-2.385 2.205-1a.295.295 0 00.169-.305.29.29 0 00-.24-.24l-2.386-.418-.997-2.205a.295.295 0 00-.56.072v-.01z"/><path stroke="#FFF" stroke-linecap="round" stroke-linejoin="round" stroke-width=".721" d="M15.029 9.969l.904-.408.216-1.153m25.73 29.71l1.388-.531.435-1.83"/><path fill="#FFE783" d="M36.54 43.322l.42-1.963 1.858-.761a.254.254 0 00-.04-.464l-1.964-.418-.761-1.857a.241.241 0 00-.24-.152.243.243 0 00-.217.193l-.418 1.962-1.857.76a.241.241 0 00-.16.247c.01.11.093.198.201.216l1.963.42.759 1.858a.241.241 0 00.248.16.242.242 0 00.216-.201h-.007z"/><path stroke="#575756" stroke-linecap="round" stroke-linejoin="round" stroke-width=".869" d="M36.54 43.322l.42-1.963 1.858-.761a.254.254 0 00-.04-.464l-1.964-.418-.761-1.857a.241.241 0 00-.24-.152.243.243 0 00-.217.193l-.418 1.962-1.857.76a.241.241 0 00-.16.247c.01.11.093.198.201.216l1.963.42.759 1.858a.241.241 0 00.248.16.242.242 0 00.216-.201h-.007z"/><path stroke="#FFF" stroke-linecap="round" stroke-linejoin="round" stroke-width=".721" d="M35.284 40.65l.541-.242.149-.663"/><path fill="#FFE783" d="M41.384 32.653l.418-1.963 1.857-.76a.25.25 0 00.134-.245.255.255 0 00-.175-.218l-1.963-.42-.759-1.857a.241.241 0 00-.464.04l-.42 1.956-1.857.76a.24.24 0 00.041.465l1.963.418.761 1.857a.24.24 0 00.464-.04v.007z"/><path stroke="#575756" stroke-linecap="round" stroke-linejoin="round" stroke-width=".869" d="M41.384 32.653l.418-1.963 1.857-.76a.25.25 0 00.134-.245.255.255 0 00-.175-.218l-1.963-.42-.759-1.857a.241.241 0 00-.464.04l-.42 1.956-1.857.76a.24.24 0 00.041.465l1.963.418.761 1.857a.24.24 0 00.464-.04v.007z"/><path stroke="#FFF" stroke-linecap="round" stroke-linejoin="round" stroke-width=".721" d="M40.098 29.943l.599-.272.132-.694"/></g></svg>