<svg xmlns="http://www.w3.org/2000/svg" xmlns:xlink="http://www.w3.org/1999/xlink" width="70" height="70" viewBox="0 0 70 70">
    <defs>
        <path id="a" d="M69.618 62.222V7.778c0-4.278 0-7.778-7.735-7.778H7.735C0 0 0 0 0 7.778V63.5C0 70 3.4 70 14.118 70h47.765c7.735 0 7.735-3.5 7.735-7.778z"/>
    </defs>
    <g fill="none" fill-rule="evenodd">
        <mask id="b" fill="#fff">
            <use xlink:href="#a"/>
        </mask>
        <use fill="#E5E5E5" xlink:href="#a"/>
        <path stroke="#979797" d="M69.118 62.222V7.778c0-3.003-.148-4.145-.879-5.21C67.304 1.204 65.364.5 61.883.5H7.735C.277.5.5.276.5 7.778V63.5c0 5.458 1.46 6 13.618 6h47.765c3.481 0 5.421-.704 6.356-2.068.73-1.065.88-2.207.88-5.21z"/>
        <g fill="#CECECE" mask="url(#b)">
            <path d="M40.458 32.667l-.382.529-5.292 7.383-5.279-7.371-.388-.535a6.82 6.82 0 0 1-1.326-4.035c0-3.817 3.14-6.922 6.993-6.922 3.858 0 6.995 3.105 6.995 6.922a6.81 6.81 0 0 1-1.321 4.029M34.784 15C27.184 15 21 21.118 21 28.638c0 2.864.903 5.613 2.6 7.952l.368.502 7.176 10.019s.874 1.419 2.785 1.419H35.64c1.913 0 2.784-1.419 2.784-1.419l7.179-10.019.365-.502c1.7-2.34 2.6-5.088 2.6-7.952 0-7.52-6.183-13.638-13.784-13.638M30.908 54.679v-.028c0-2.035 1.636-3.724 3.844-3.724 2.21 0 3.833 1.662 3.833 3.7v.024c0 2.022-1.639 3.708-3.86 3.708-2.192 0-3.817-1.656-3.817-3.68"/>
        </g>
    </g>
</svg>
