<svg xmlns="http://www.w3.org/2000/svg" width="34" height="35"><g fill="none" fill-rule="evenodd"><path fill="#6E6E6E" d="M16.928.546C7.579.546 0 8.125 0 17.474s7.579 16.927 16.928 16.927 16.928-7.578 16.928-16.927c0-9.35-7.58-16.928-16.928-16.928"/><path fill="#FEFEFE" d="M8 18.498c0-4.917 4-8.917 8.916-8.917.557 0 1.107.051 1.644.151l-.544-.902a1.206 1.206 0 112.065-1.247l2.487 4.117a1.206 1.206 0 01-1.756 1.59 6.45 6.45 0 00-3.896-1.296 6.511 6.511 0 00-6.504 6.504 6.51 6.51 0 006.504 6.504 6.51 6.51 0 006.504-6.504 1.206 1.206 0 012.412 0c0 4.916-4 8.916-8.916 8.916S8 23.414 8 18.498z"/><path fill="#FEFEFE" d="M16.114 14.712a1.206 1.206 0 01.58-1.604l4.255-1.994a1.206 1.206 0 111.024 2.184l-4.255 1.994a1.207 1.207 0 01-1.604-.58z"/></g></svg>