<svg xmlns="http://www.w3.org/2000/svg" width="612" height="623.376"><path fill="#FBAF40" d="M306 44.256c147.263 0 267.75 120.487 267.75 267.75S453.263 579.756 306 579.756 38.25 459.269 38.25 312.006 158.737 44.256 306 44.256m0-38.25c-169.256 0-306 136.744-306 306s136.744 306 306 306 306-136.744 306-306-136.744-306-306-306z"/><path fill="none" stroke="#FBB040" stroke-width="40" stroke-linecap="round" stroke-miterlimit="10" d="M401.625 428.668c-25.818-21.993-59.287-34.425-95.625-34.425-36.337 0-69.806 13.388-95.625 34.425"/><circle fill="#FBAF40" cx="181.688" cy="273.756" r="52.594"/><circle fill="#FBAF40" cx="430.312" cy="273.756" r="52.594"/><path fill="none" stroke="#FBB040" stroke-width="40" stroke-linecap="round" stroke-miterlimit="10" d="M153 178.131l66.938-28.687M459 178.131l-66.938-28.687"/></svg>