<svg xmlns="http://www.w3.org/2000/svg" width="200" height="202"><g fill="none" fill-rule="evenodd"><path fill="#FFF1D1" d="M157.966 62.4c19.172 24.01 42.082 46.432 42.034 69.827-.096 23.396-23.246 47.713-49.942 59.794-26.745 12.082-57.036 11.928-83.925-.205C39.197 179.684 15.712 155.623 5.6 123.78-4.514 91.99-1.255 52.468 18.06 28.356 37.376 4.296 72.7-4.305 98.102 4.193c25.355 8.498 40.692 34.146 59.864 58.207z"/><g stroke-linecap="round" stroke-linejoin="round" stroke-width="2.776"><path fill="#71B4A5" fill-rule="nonzero" stroke="#585857" d="M35.8 103.373h21.12v64H35.8z"/><path stroke="#FFF" d="M38.36 165.453v-60.16h8.96"/><path fill="#71B4A5" fill-rule="nonzero" stroke="#585857" d="M67.8 120.653h21.12v47.36H67.8z"/><path stroke="#FFF" d="M70.36 160.973v-38.4h7.68"/><path fill="#71B4A5" fill-rule="nonzero" stroke="#585857" d="M99.8 77.133h21.12v90.88H99.8z"/><path stroke="#FFF" d="M101.72 156.493v-76.8h12.16"/><path fill="#71B4A5" fill-rule="nonzero" stroke="#585857" d="M131.16 33.613h21.12v134.4h-21.12z"/><path stroke="#FFF" d="M133.08 142.413V35.533h11.52"/><path fill="#F5D44A" fill-rule="nonzero" stroke="#585857" d="M26.728 169.933L23 168.186l24.115-39.088 25.666 25.905 77.823-122.67 3.596 1.945-80.891 126.921-25.369-25.608z"/></g></g></svg>