<svg xmlns="http://www.w3.org/2000/svg" width="32" height="32"><path fill="#6F6E6E" fill-rule="evenodd" d="M7.372 8.619v1.13c0 1.703 1.425 3.088 3.177 3.088s3.178-1.385 3.178-3.087V8.619h4.547v1.13c0 1.703 1.425 3.088 3.177 3.088s3.177-1.385 3.177-3.087V8.619h.736c1.456 0 2.636 1.147 2.636 2.56v12.26C28 24.854 26.82 26 25.364 26H6.636C5.18 26 4 24.854 4 23.439v-12.26c0-1.413 1.18-2.56 2.636-2.56h.736zM22.78 17.69h-2.657c-.769 0-1.393.606-1.393 1.354v1.913c0 .748.624 1.354 1.393 1.354h2.657c.77 0 1.394-.606 1.394-1.354v-1.913c0-.748-.624-1.354-1.394-1.354zM10.55 6c.778 0 1.409.613 1.409 1.369v2.38c0 .756-.631 1.369-1.409 1.369-.777 0-1.408-.613-1.408-1.369V7.37c0-.756.63-1.369 1.408-1.369zm10.902 0c.778 0 1.408.613 1.408 1.369v2.38c0 .756-.63 1.369-1.408 1.369-.778 0-1.408-.613-1.408-1.369V7.37c0-.756.63-1.369 1.408-1.369z"/></svg>