<svg width="23" height="24" xmlns="http://www.w3.org/2000/svg"><path d="M23 11.676v1.297c-.207 1.141-.947 2.065-1.916 2.428v5.356c0 1.72-1.319 3.126-2.985 3.236l-.21.007H5.11c-1.694 0-3.08-1.338-3.188-3.03l-.006-.213-.001-5.356C.947 15.038.206 14.114 0 12.973v-1.297h23zM5.779 12.973h-.116c-.244 1.35-1.235 2.396-2.468 2.57v5.214c0 1.011.76 1.843 1.732 1.937l.184.009 3.833-.001V19.42a2.556 2.556 0 115.112 0l-.001 3.282h3.834c.996 0 1.815-.771 1.908-1.758l.009-.187v-5.215c-1.233-.173-2.225-1.219-2.47-2.569h-.115c-.268 1.48-1.434 2.595-2.832 2.595-1.397 0-2.563-1.114-2.831-2.595h-.116c-.268 1.48-1.434 2.595-2.831 2.595-1.398 0-2.564-1.114-2.832-2.595zM11.5 0c2.044 0 3.715 1.083 3.827 2.447l.006.148h4.398c.574 0 1.08.378 1.244.93L23 10.377H0l2.025-6.854c.163-.551.67-.93 1.244-.93h4.398C7.667 1.163 9.383 0 11.5 0z" fill="#6E6E6E" fill-rule="evenodd"/></svg>