<svg xmlns="http://www.w3.org/2000/svg" width="66" height="66"><g fill="none" fill-rule="evenodd" transform="translate(0 1)"><circle cx="33" cy="32" r="32" fill="#FFF" stroke="#FFC244" stroke-width="2"/><path fill="#FFC244" d="M19.94 38.456h2.736v-4.584h4.608v-2.664h-4.608v-4.56H19.94v4.56h-4.608v2.664h4.608v4.584zm16.272 2.832c3.72 0 6.216-2.256 6.216-5.688v-.048c0-3.552-2.568-5.28-5.832-5.28-1.128 0-1.872.192-2.664.48l.264-3.936h7.488V24.2H31.652l-.48 8.232 1.776 1.176c.864-.408 1.896-.744 3.096-.744 2.04 0 3.48 1.08 3.48 2.784v.048c0 1.752-1.32 2.904-3.336 2.904-1.56 0-2.976-.768-4.32-2.016l-1.824 2.136c1.584 1.536 3.6 2.568 6.168 2.568zm8.88-10.296c2.424-.192 3.696-1.32 3.696-3.984V24.2h-3.192v3.288h1.224c.12 1.248-.576 1.992-2.04 2.256l.312 1.248z"/></g></svg>