<svg xmlns="http://www.w3.org/2000/svg" width="66" height="66"><g fill="none" fill-rule="evenodd" transform="translate(1 1)"><circle cx="32" cy="32" r="32" fill="#FFC244" stroke="#FFC244" stroke-width="2"/><path fill="#FFF" d="M13.964 38.456H16.7v-4.584h4.608v-2.664H16.7v-4.56h-2.736v4.56H9.356v2.664h4.608v4.584zM27.212 41h2.928V24.08h-2.064l-4.512 1.44.624 2.4 3.024-.84V41zm13.896.288c-4.416 0-7.296-3.84-7.296-8.64V32.6c0-4.8 2.928-8.688 7.344-8.688 4.392 0 7.296 3.84 7.296 8.64v.048c0 4.8-2.928 8.688-7.344 8.688zm.048-2.664c2.616 0 4.248-2.664 4.248-5.976V32.6c0-3.312-1.704-6.024-4.296-6.024-2.592 0-4.248 2.64-4.248 5.976v.048c0 3.312 1.68 6.024 4.296 6.024zm9.912-7.632c2.424-.192 3.696-1.32 3.696-3.984V24.2h-3.192v3.288h1.224c.12 1.248-.576 1.992-2.04 2.256l.312 1.248z"/></g></svg>