<svg xmlns="http://www.w3.org/2000/svg" width="22" height="22"><g fill="none" fill-rule="evenodd"><circle cx="11" cy="11" r="10.5" fill="#F66" stroke="#F66"/><path fill="#FFF" fill-rule="nonzero" d="M18.258 11.4c.236-.315.33-.72.262-1.112a1.408 1.408 0 00-.623-.945 1.44 1.44 0 00.282-.856 1.431 1.431 0 00-.867-1.323 1.79 1.79 0 00.15-.735c0-.856-.486-1.429-1.205-1.429h-5.032a5.039 5.039 0 00-1.73.29c-.189.076-.37.173-.54.287H4v9.58h5.106v-1.36c.864.46 2.16 1.369 2.16 2.38 0 .715.194 1.24.582 1.557.255.202.57.31.891.303.105 0 .21-.01.313-.03a1.683 1.683 0 001.138-.78c.454-.717.49-1.79.114-3.196h3.198c.767.004 1.393-.636 1.398-1.431a1.437 1.437 0 00-.642-1.2zM8.33 14.354H4.776V6.383H8.33v7.971zm9.17-1.125h-4.254l.17.528c.565 1.756.388 2.612.14 3.014a.902.902 0 01-.595.438h-.053a.754.754 0 01-.582-.118c-.236-.201-.285-.603-.285-.922 0-1.755-2.264-2.954-2.935-3.272V6.525l.011-.016c.05-.094.194-.279.665-.472.465-.16.952-.238 1.441-.233h5.028c.355 0 .429.34.429.627s-.074.625-.429.625h-.613a.395.395 0 00-.387.402c0 .222.173.402.387.402h1.14c.335 0 .606.28.606.627a.616.616 0 01-.605.626h-.97a.395.395 0 00-.388.402c0 .222.174.402.388.402h1.32c.335 0 .606.28.606.627a.617.617 0 01-.605.627H16a.395.395 0 00-.389.402c0 .222.174.402.388.402H17.5c.334 0 .605.28.605.627 0 .346-.27.627-.605.627z"/></g></svg>