<svg xmlns="http://www.w3.org/2000/svg" width="200" height="202" fill="none" fill-rule="evenodd"><path fill="#fff1d1" d="M157.966 62.4c19.172 24 42.082 46.432 42.034 69.827-.096 23.396-23.246 47.713-49.942 59.794-26.745 12.082-57.036 11.928-83.925-.205-26.936-12.132-50.42-36.193-60.533-68.036C-4.514 92-1.255 52.468 18.06 28.356 37.376 4.296 72.7-4.305 98.102 4.193c25.355 8.498 40.692 34.146 59.864 58.207z"/><path fill="#ffc244" stroke="#4a4a4a" stroke-width="5" d="M164.04 155.833c-1.757 4.392-6.148 7.026-11.416 7.026H48.118c-4.39 0-8.782-2.634-11.416-7.025s-2.635-9.66 0-14.05L88.515 51.33c1.756-4.4 6.147-7.025 11.416-7.025s9.66 2.634 12.295 7.025l51.813 90.453c2.635 4.39 2.635 9.66 0 14.052z"/><path fill="#ffb21f" d="M158.235 152.4c-2.67 4.18-8.3 5.182-13.105 5.182H49.6c68.914 0 37.897-57.074 82.217-60.224l23.737 41.023c2.41 4 4.757 9.196 2.67 14.02z"/><path stroke="#fff" stroke-linecap="round" stroke-width="5" d="M44.206 143.026L92.354 59.1c2.72-4.414 3.423-7.4 8.32-7.4"/><g fill="#4a4a4a"><path fill-rule="nonzero" d="M99.93 80.31c-2.633 0-4.4 1.757-4.4 4.392v31.614c0 2.635 1.756 4.39 4.4 4.39s4.392-1.756 4.392-4.4V84.7c0-2.635-1.757-4.392-4.39-4.392z"/><circle cx="99.691" cy="139.364" r="5.744"/></g></svg>